<svg xmlns="http://www.w3.org/2000/svg" viewBox="0 0 301.78 175.99"><defs><style>.b6a87fb4-6fad-4aeb-88c8-2ceac4069bb8{fill:#ef692f;}.f1d6c798-1424-4fed-9c0d-87158824ba5f{fill:#8dc63f;}.a3db4ac5-cb80-4188-bf57-9aa3dd76220d{fill:#f4dc48;}.b18580ca-a465-48c0-a3a3-f860ad85a465{fill:#e92477;}</style></defs><g id="b9baca00-2330-4b3d-ad0e-1adec5536478" data-name="Layer 4"><path class="b6a87fb4-6fad-4aeb-88c8-2ceac4069bb8" d="M63.79,119.46a11.33,11.33,0,0,1-.73-5.14,3.94,3.94,0,0,0,1.42-2.09c0-.15.1-.28.14-.43a3.73,3.73,0,0,0,1.12-1.21c1.48-2.57,2.12-5.44,3.26-8.16a3.56,3.56,0,0,0-.14-3.25,45.85,45.85,0,0,0,1.82-6.57,5.4,5.4,0,0,0,0-.56c3-5,6.31-9.74,9.7-14.43s6.81-9.28,10.28-13.86l.12-.17a8.8,8.8,0,0,0,2.72-3.5,27.08,27.08,0,0,1,3.19-3.32,15.35,15.35,0,0,0,3.81-3.9c1.21-2-.55-5.1-2.8-5.29-2.87-.23-5.33.64-8.13,1.05s-5.81.85-8.7,1.46a57.85,57.85,0,0,0-15.58,5.36,3.9,3.9,0,0,0-4.8,1.78,21.25,21.25,0,0,0-1.43,3.05c-4.66,9.86-10.09,20.43-11,31.23-.47,5.6.88,10.45,3,15.56,2,4.85,3.19,10.12,5.51,14.83,0,0,0,.08,0,.12h0c.15.29.28.59.44.88C59.16,126.64,65.46,123.37,63.79,119.46Z"/><path class="b6a87fb4-6fad-4aeb-88c8-2ceac4069bb8" d="M141.23,133.71c.27-.28.54-.55.8-.83a27.34,27.34,0,0,0,5.24-6.19l.12-.14a41.43,41.43,0,0,0,6.66-12c1.15-3.72.26-10.25-.46-14-1.76-9.2-2.43-14.67-8.43-20.94-1.82-1.91-4.81-.59-5.86,1.33s-1.21,3.9-1.94,5.84c-.87,2.28-2.14,4.4-3.21,6.59-2.15,4.4-3.64,9.07-5.56,13.57a3.5,3.5,0,0,0-.22,2c-.67,1-1.34,2.07-2,3.14-.48.81-1,1.64-1.51,2.47s-1,1.49-1.46,2.24c-1.49,1.54-2.83,3.24-4.2,4.9a67.36,67.36,0,0,0-6.07,8,2.54,2.54,0,0,0-.26.56c-2.79,2.47-5.59,4.91-8.07,7.48a4.55,4.55,0,0,0-.7.08,3.8,3.8,0,0,0-1.23,7.19c3.63,1.85,7.75.82,11.63.64,4.31-.19,8.43-.36,12.48-2a41.44,41.44,0,0,0,11.91-7.65,3.42,3.42,0,0,0,1.74-1.4C140.85,134.24,141,134,141.23,133.71Z"/><path class="f1d6c798-1424-4fed-9c0d-87158824ba5f" d="M115.06,113.83a95.3,95.3,0,0,0,7.66-12.13c2.54-4.51,5.85-9.22,7.56-14.12,1.58-4.52,3.12-15-.94-19.17a3.16,3.16,0,0,0-1.43-2c-7.22-4.85-15.64-6.15-23.66-2.52C96.63,67.33,89.45,74.06,85,81.09c-5,7.85-8.27,17-10.49,26-1.75,7.08-2.58,15.12,1.39,21.7,3.75,6.21,13.45,6.94,19.63,4.39C104.25,129.6,109.51,121,115.06,113.83Z"/><path class="a3db4ac5-cb80-4188-bf57-9aa3dd76220d" d="M113.26,128.69q3-4.78,6-9.59a44.55,44.55,0,0,0,4.95-4.43c5.36-5.82,8.39-12.41,11.57-19.56a74.7,74.7,0,0,0,3.9-9.55c.7-2.39,1.89-4.9,1.44-7.37a4.65,4.65,0,0,0,.54-1.34c.69-3.16-2.17-5.29-3.62-7.69A45,45,0,0,0,134,63.35c-.2-.37-.41-.74-.64-1.1a2.55,2.55,0,0,0-1.46-1.17h0c-2.94-2.87-6.81-4.52-10-7.06a2.75,2.75,0,0,0-2.93-.39A22,22,0,0,0,109,50.14h-.1a2.74,2.74,0,0,0-2-.12c-4.57,1.56-7.2,4.83-10.7,8A127.83,127.83,0,0,0,84.34,70.44a2.83,2.83,0,0,0-.7,1.61,112.59,112.59,0,0,0-6.12,11.19c-2.7,5.25-5.93,10.26-8.28,15.68a60.76,60.76,0,0,0-4.49,16.78,2.91,2.91,0,0,0-.93,2.29c0,.33,0,.66,0,1-.09,2-.92,4-.64,6a3.36,3.36,0,0,0,1.06,2c.06.35.11.7.18,1.05a3.12,3.12,0,0,0,4.36,2.27,2.8,2.8,0,0,0,.71.74,4.07,4.07,0,0,0,1.29,1.29c3.34,2.07,6.92,4,10.37,5.83A23.31,23.31,0,0,0,85.63,140a2.8,2.8,0,0,0,1.75,1,9.82,9.82,0,0,0,2.33.13c.73.2,1.45.42,2.18.67,2.69.93,5,2,7.61.13a17.1,17.1,0,0,0,1.73-1.42,3.37,3.37,0,0,0,1.58-.42C107.2,137.76,110.64,132.81,113.26,128.69Zm-7.76-4.63c-2.14,2.37-5,4.07-7.7,5.76-1,.62-2.13,1.4-3.33,2.15-2.16.56-4.68,1.21-6.42,2.52a58.92,58.92,0,0,1-13.21-6.44,3.12,3.12,0,0,0-1.16-.92s0-.07-.05-.1c-1.79-2.71-.33-5.74-.76-8.61a3,3,0,0,0-2.23-2.49A54.65,54.65,0,0,1,75.19,100c2.06-4.43,4.7-8.55,6.93-12.89s4.36-9.27,7.37-13.2a3.21,3.21,0,0,0,.54-1.1c1.64-1.91,3.31-3.81,5-5.64a2.79,2.79,0,0,0,2.83-.88c2.32-2.55,7.74-3.63,11-3.85,2-.13,4.17.66,6.07-.15a3.15,3.15,0,0,0,1.67-1.75c2.5,2.18,6.44,3.71,9.51,4.84l.4.35a21.38,21.38,0,0,1,4,5.91c.35,2.75.28,5.54,1,8.4a2.6,2.6,0,0,0,2,1.8,244.25,244.25,0,0,1-14,25.61q-2.5,4.14-5.06,8.23A93.53,93.53,0,0,0,105.5,124.06Z"/><path class="f1d6c798-1424-4fed-9c0d-87158824ba5f" d="M128.86,90.16c4.36-6.56,5.69-17.41.15-23.81a14.52,14.52,0,0,0-11.29-5.22l-1.5-.05a5.93,5.93,0,0,0-3.54,0c-2.74.18-5.51.81-6.84,2.69a2.62,2.62,0,0,0-.43,1c-1,.5-2.06,1-3.12,1.47a31.11,31.11,0,0,0-11.8,8.52c-2.37,2.94,2.13,6.72,4.51,3.77,2.8-3.46,6.61-5.6,10.64-7.34,3.3-1.43,6.41-3.61,10-4.3L117,67c3.38.07,6,1,8,3.9,2.8,4.31,2.13,11.4-.62,15.55C122.29,89.51,126.77,93.31,128.86,90.16Z"/><path class="a3db4ac5-cb80-4188-bf57-9aa3dd76220d" d="M192.48,158.61a4.58,4.58,0,0,0-.34-1.64c-1.57-3.84-7.14-7.07-10.41-9.27a36.6,36.6,0,0,0-9.77-4.92l.12-.15a2.63,2.63,0,0,0,.7-2c4.39-.3,8.77-.91,13.1-1.61l.49-.09a24.4,24.4,0,0,0,5.39-1,2.71,2.71,0,0,0,1.73.41,2.84,2.84,0,0,0,2-1,9.62,9.62,0,0,0,.91-1.59,4.37,4.37,0,0,0,.17-3,3.36,3.36,0,0,0-1.75-2,7.89,7.89,0,0,0-.75-1c-2.26-2.51-7.11-2.11-10.18-2.12a131.4,131.4,0,0,0-14,.68c-3.26.34-8.51-.13-11.37,1.63-1.7,1-3.54,4.42-3.73,6.42,0,.13,0,.25,0,.37l-.27.58a3.5,3.5,0,0,0-.17.52c-.55.65-1.11,1.33-1.61,2a2.57,2.57,0,0,0-.55.19c-1.47.68-2.87,1.53-4.39,2.09-1.31.49-2.74.58-3.87,1.41-1.83,1.35-3,4.49-3.55,6.6-1.31,5.24-1.89,13.15,1.29,17.9,2.88,4.28,7.24,2.2,8-2.27a47.39,47.39,0,0,0,.46-7.53,2.26,2.26,0,0,0,1.24.9,3.3,3.3,0,0,0,.1,1c1.08,3.93,5.82,10.07,10.75,12a2.94,2.94,0,0,0,.91,1.17,5,5,0,0,0,3.41,1.06c2.54,1.07,5.53,1.11,7.15-.88s.63-4.17-1.21-5.38a19.53,19.53,0,0,0-3.58-9.73c-.43-1.06-.89-2.09-1.34-3a52.28,52.28,0,0,0,10.16,5.61c.06.05.11.11.18.16,2.48,1.8,7.1,3.75,10.23,3a5.84,5.84,0,0,0,2.23-1.07A3,3,0,0,0,192.48,158.61Z"/><path class="a3db4ac5-cb80-4188-bf57-9aa3dd76220d" d="M40.8,60.66a18.59,18.59,0,0,1,3.62-6.08,12.88,12.88,0,0,1,7.09-4.38c2.26-.68,2.34-3,1.2-4.49a3,3,0,0,0,.59-1.86,4.87,4.87,0,0,1,0-.54c0-.51.19-1,.23-1.53.08-.83,0-1.64.17-2.46a3.13,3.13,0,0,0-.08-1.16c0-.24,0-.48,0-.71.21-1.15.37-2.31.49-3.48a1.85,1.85,0,0,0,0-.23,50,50,0,0,0,1-10.34c0-3.86.4-7.83-.35-11.64v-.08h0c0-.24-.09-.49-.15-.74a2.35,2.35,0,0,0-1.56-1.79c-.39-2.63-1.29-5-3.12-6.46-4.89-4-10.21.92-11.78,5.72a27.54,27.54,0,0,0-.12,15.45C33.73,19.78,26.68,16.21,22.63,20c-2.9,2.73-.35,6.54,1.11,9.28a17.52,17.52,0,0,0,4,5.17c.5.43,2.83,1.93,4.46,3.15C30.27,37.46,28,37,27,37c-3.22.06-6.35.84-9.59,1-4.55.21-11.91-.14-14.91,4.16-2.88,4.13,1.36,7.58,5.32,8.06,3.1.38,6.32.11,9.45.38,1.66.14,3.35.32,5,.46-1.35,1-2.79,1.92-4.05,2.9-3.29.4-7.8,2-9.59,4.64a7.15,7.15,0,0,0,1.63,9.23c3,2.2,7.89,1.91,11.37,1.66a27.41,27.41,0,0,0,4.32-.66,3.15,3.15,0,0,0,1.38.33,18,18,0,0,0,10.5-3.71C40.36,66.23,42.85,62.83,40.8,60.66Z"/><path class="b18580ca-a465-48c0-a3a3-f860ad85a465" d="M156.31,130.07A2.81,2.81,0,0,0,155.2,128c0-.21,0-.42,0-.63a1.42,1.42,0,0,0,.05-.22,3.06,3.06,0,0,0-3.41-4.57l-.49.15a2.89,2.89,0,0,0-1.9,2.27,4.89,4.89,0,0,0,0,.54c-.8,1-1.54,2.11-2.3,3.18-2.63,3-5.81,5.52-8.57,8.42-2,2.05.61,5.89,3.24,4.65l.68-.32a6,6,0,0,0,2.92.32,2.57,2.57,0,0,0,1.36,0C151.46,140.77,156.83,135.19,156.31,130.07Z"/><path class="b18580ca-a465-48c0-a3a3-f860ad85a465" d="M59.55,59.67c1.76-.8,2.79-3.32.84-4.92C57,52,53.45,50.46,49.19,52.15c-3.89,1.54-8.33,5.36-7.33,10.07.78,3.68,5.76,7.42,9.57,6.82C55.84,68.36,57.63,63.2,59.55,59.67Z"/><path d="M195.09,160.7c.93-4-2.76-7.63-5.54-10A43,43,0,0,0,176.26,143c2.19-.16,4.41-.21,6.45-.49a35.77,35.77,0,0,0,10.57-2.85c3.6-1.7,7.92-6.28,4.19-10.12-4.24-4.36-12.47-3.61-17.9-3.42a120.36,120.36,0,0,0-13.95.86c-2.22.34-5.29.09-7.43,1.06-.29-3.51-3-5.75-5.55-7.84A33.13,33.13,0,0,0,155,99.88a57.73,57.73,0,0,0-5.57-15c-2.78-5.17-5.58-10.59-8.86-15.44-2.86-4.22-5.37-8.17-9.21-11.62-4-3.57-8.89-5.4-13.94-6.93a68.12,68.12,0,0,0-10.54-2.29,1,1,0,0,0-.56-.07,82.94,82.94,0,0,0-27.07,1A43.41,43.41,0,0,0,63.43,56c-2.32-3.08-4.93-6.13-9.06-6.47a19,19,0,0,0,.27-2.66c.19-2.14.81-4.22,1-6.35.47-4.45,1-9,1.14-13.48.23-7.72.45-17.73-5-23.94C47-2.32,39.75-.18,37.24,6.16c-1.38,3.49-1.09,7.37-.7,11,.15,1.45.33,3,.62,4.62a18.56,18.56,0,0,0-4.75-2.72c-3-1.2-8.25-2.82-11.12-.52s-1.34,7-.17,9.9a22.68,22.68,0,0,0,6.27,8.42c-.9,0-1.81-.08-2.73-.14-3.54-.23-7-.73-10.6-.69-4.73.06-11.84.66-13.64,6-2.8,8.26,9.08,9.64,16.9,9.93a40.65,40.65,0,0,0-4.24,1.75c-2.17,1.12-4.52,2.09-5.91,4.21-2.3,3.5-1.86,8.43,1.61,10.9,4,2.83,10.1,3.19,14.79,2.76a42.94,42.94,0,0,0,8.32-1.69c3.29-1,6.25-3.85,9.62-4.34l.17,0c2,3,6.15,4.75,9.58,5a1.3,1.3,0,0,0,1.29-.79,1.06,1.06,0,0,0,.08.4c-1.91,3.44-2.53,7.64-3.4,11.42-1.19,5.21-2.47,11-1.83,16.34.6,5.07,2.56,9.91,4.22,14.7,1.92,5.53,5.4,9.52,9.38,13.73a62.44,62.44,0,0,0,28.84,17.12c2,.52,4.25,1.18,6.5,1.74a1.2,1.2,0,0,0,.69.35,3.46,3.46,0,0,0,1,0,26.69,26.69,0,0,0,6.71.74c5.6-.26,11.24-.41,16.87-.7a28.06,28.06,0,0,0,15.07-5.38,10.29,10.29,0,0,0,5.26,2.92s0,.06,0,.09c.15.54-.91,2.06-1.11,2.63-.57,1.61-.94,3.33-1.46,5a35.57,35.57,0,0,0-1.71,6.83,15.86,15.86,0,0,0,2.87,11.12c1.6,2.17,5.06,4.52,7.77,2.63,2.37-1.65,2.56-5.74,2.52-9.28A17.46,17.46,0,0,0,152.7,165a51.68,51.68,0,0,0,7.27,7.22c2.82,2.15,8.55,5.08,12.12,3.13s3.14-7.67,2.32-10.9a18.75,18.75,0,0,0-1.83-4.41,34.2,34.2,0,0,0,11.93,5.14C188.45,166,194,165.44,195.09,160.7ZM31.7,67.35A32.26,32.26,0,0,1,16.83,68.9c-2.63-.4-5-1-6.95-2.79-3.55-3.33-.5-7.62,3-9.49a56.32,56.32,0,0,1,5.82-2.9c1.58-.62,3.13-.83,4.53-1.83a1.27,1.27,0,0,0-.83-2.29c-4.41-.17-8.49.15-12.87-.83C5.5,47.86-1.17,43.9,5.48,40.14,9.28,38,15,38.45,19.11,38.77c3.9.31,9.06-.09,12.64,1.51,1.25.56,2.52-1.26,1.33-2.11a32.38,32.38,0,0,1-7.27-6.55c-1.65-2.19-6.34-10-.67-11.56,2.35-.64,6.31,1.21,8.33,2.31a13.75,13.75,0,0,1,5.67,5.54,1.13,1.13,0,0,0,.48.47,1.27,1.27,0,0,0,1.91-1.63c-2.86-4.25-3.59-13.19-2.45-18.1C40.34,3.22,45.61.17,50,4.93c2.41,2.63,3.66,7,4,10.52a86.37,86.37,0,0,1-.36,18.88c-.33,2.53-.27,5.08-.67,7.6-.32,2-.31,5.64-1.13,7.44a1.13,1.13,0,0,0-.08.24,15.37,15.37,0,0,0-8.26,4,10.44,10.44,0,0,0-2.75,9.57C37.45,63.9,34.84,66.29,31.7,67.35Zm20,.68c-2.82-.19-7.22-2-8.35-4.77-1.32-3.26.49-7.16,3.29-9,2.27-1.47,5.66-2.78,8.36-2.21,2.94.63,4.79,3.05,6.46,5.37a28.54,28.54,0,0,0-8.75,11.69A1,1,0,0,0,51.68,68Zm4.63,49c-2.86-4.41-4.54-10.8-5.76-15.89-1.45-6-.29-11.81.89-17.76.8-4,1.6-9.27,3.82-12.84a1,1,0,0,0,0-1.08,26.55,26.55,0,0,1,7.76-10.08,1.32,1.32,0,0,0,1.8-1.34A38.92,38.92,0,0,1,77.8,52.43c5.44-1.32,10.9-1.51,16.46-1.73,2.42-.09,4.79-.15,7.16-.08-4,2.61-7.32,6.85-10.21,10a108.3,108.3,0,0,0-15,20.09c-3.82,6.88-7.17,13.5-9.49,21.05-2.22,7.22-5.53,14-5.46,21.63A52.36,52.36,0,0,1,56.31,117Zm12.53,13.3a43.53,43.53,0,0,1-5.47-4.68,1.19,1.19,0,0,0,.42-1c-.49-7.31,2.65-13.54,4.74-20.35a110.71,110.71,0,0,1,8.58-20A97.58,97.58,0,0,1,89.89,65.77c2.48-2.81,5-5.63,7.68-8.28,2.34-2.35,5.4-5.72,8.83-6.46h0c1,.13,2,.28,3,.49,10.2,2.13,20.14,5.38,25.86,14.69,2.09,3.41,4.22,6.77,6.29,10.17-1.11,1.91-1.32,4.28-2.05,6.37-1,2.92-2,5.82-3.25,8.64A129.56,129.56,0,0,1,125.06,111a191.06,191.06,0,0,1-12.87,17,98.66,98.66,0,0,1-7.15,8.26c-1.13,1.08-4.51,5.54-6.63,6.61-.49-.09-1-.18-1.46-.29A77.69,77.69,0,0,1,68.84,130.34Zm68,6.8a1.35,1.35,0,0,0-1,.63l-.1.16a27.39,27.39,0,0,1-10.7,4.79c-4.42.86-9.57.87-14.07,1a65.53,65.53,0,0,1-9.56-.4c2.54-2.38,5.15-4.79,7.46-7.37a193.63,193.63,0,0,0,15.44-19.44c4.31-6.28,9.24-12.74,12.34-19.73,1.36-3.07,2.84-6.13,3.91-9.32.61-1.85,1.3-3.66,1.93-5.51.29-.85.4-1.93.64-2.89a121.64,121.64,0,0,1,6.88,13.16c3.65,8.36,4.16,19,.35,27.59a1.34,1.34,0,0,0-.42.92v0A48,48,0,0,1,136.86,137.14Zm5.45,3.64c-.3-.08-3-1.6-3.89-1.92A53.3,53.3,0,0,0,148,128.41a44.31,44.31,0,0,0,3.59-5.93,12.42,12.42,0,0,1,3.38,3.4c1.66,3,.15,7-1.52,9.57a13.55,13.55,0,0,1-5.75,4.77A8.3,8.3,0,0,1,142.31,140.78ZM182,161.85a34.71,34.71,0,0,1-12.58-7.48,1.27,1.27,0,0,0-2.06,1.07c0,1.31,1.46,3.11,2.07,4.13,1.84,3.06,3.49,6.41,3.05,10.14s-4.87,3.67-7.63,2.46a20.08,20.08,0,0,1-6.46-5,43,43,0,0,1-4.72-5c-1.14-1.67-1.81-3.56-3-5.18-.61-.79-2.19-.66-2.28.51-.17,2.39.95,11.78-2.75,12-4.39.3-5.74-8.6-5.44-11.4.36-3.49,1.79-6.76,2.75-10.09.45-1.53,1.49-3,1.52-4.62a14.09,14.09,0,0,0,10-5,17.08,17.08,0,0,0,3.58-7.54,1.18,1.18,0,0,0,.71-.26c1.56-1.19,5.18-.86,7.13-1.16a72.25,72.25,0,0,1,7.63-.65c5.44-.25,13.95-1.81,18.94.79,1.4.72,3.72,2.74,3.53,4.66-.15,1.51-3.12,2.83-4.1,3.27a31.21,31.21,0,0,1-8,2.24c-4.41.74-9.36.37-13.61,1.68a1.27,1.27,0,0,0,.22,2.43,36.31,36.31,0,0,1,14.1,6.16c2.69,2,6.33,4.4,7.67,7.62C195,164.32,185.38,163,182,161.85Z"/><path d="M121,108.34c5-7.64,10.21-14.69,12.15-23.88,1.5-7.09,1.08-15.11-4.4-20.5a1,1,0,0,0-1.22-.23c-10.22-7.61-23.55-4.66-32.66,3.58C88.71,72.82,84.59,80.47,80.49,87.5c-1.9,3.26-2.88,6.84-4.33,10.29a70.23,70.23,0,0,0-4,11.08c-1.52,6.42-2.72,13.73,1.36,19.49a15.22,15.22,0,0,0,15.18,6.43c7.74-1.34,13.13-4.54,18.7-9.89A94.45,94.45,0,0,0,121,108.34Zm-9.5,8.57c-4.64,4.6-8.5,10.19-14.62,13s-13.49,4.14-19-.53c-5.69-4.85-4.92-12.25-3.45-18.81,2.81-12.63,9.33-25.34,17-35.74,8-10.92,23.5-18.14,35.32-8.48a1.19,1.19,0,0,0,1,.27c4.28,4.94,4.13,13,2.57,18.88-1.82,6.86-5.25,12.38-9.28,18.1C117.86,108,115.34,113.07,111.45,116.91Z"/><path class="f1d6c798-1424-4fed-9c0d-87158824ba5f" d="M255.73,103.47a3.34,3.34,0,0,0-2.19.82c-4.06-.1-7.59,1.52-11.22,3.9-4.56,3-6.46,7.35-7.59,12.53-1.9,8.73,2.38,19.86,11.91,21.71,4.23.83,8.47,1.46,12.49-.07a7.67,7.67,0,0,0,3.26-.21c4.49-1.23,7.79-6.35,9.48-10.43C276.44,120.71,268.92,103.37,255.73,103.47Z"/><path class="b18580ca-a465-48c0-a3a3-f860ad85a465" d="M294.23,140.62c-.75-4.93-2.21-9.74-3.29-14.62-1.13-5.11-3.91-9.64-5.47-14.58a89.81,89.81,0,0,0-5.27-12.63c-1.73-3.51-3.2-6.23-5.84-8.54a2.43,2.43,0,0,0,.5-.51c1.4-1.94,3.3-3.23,4.64-5.26,1.66-2.51,3.34-5,4.95-7.54,3.64-5.74,9.05-11.13,11.57-17.48,1.7-4.26,4.29-10.46,4-15.15-.36-6.62-7.17-5.55-10.83-9.22a3.45,3.45,0,0,0-.64-.48c1.58-6,4.34-11.64,5.39-17.81.67-3.91,1-8.36-2.75-10.74a2.39,2.39,0,0,0-3,.17C284,4.67,278.07,5,274.71,4.71c-3.74-.36-7.63-.48-11.39-.61-3.07-.1-6.61.07-9.3,1.76-2.45,1.54-3.24,4.64-4.11,7.24a31.09,31.09,0,0,0-1.46,6.45,73.8,73.8,0,0,0-10.4.2c-3.84.29-9.12-.49-12.48,1.74s-3.7,5.75-3.8,9.42a113.17,113.17,0,0,0,.48,13.14c.78,9,.87,17.87,6.58,25.45,2.74,3.65,6,7,9,10.43a21.55,21.55,0,0,0,6.27,5c-.49.67-1,1.37-1.41,2.07a3.23,3.23,0,0,0-2.1.83,58.89,58.89,0,0,0-5,4.74c-2.55,2-5.25,3.82-7.34,6.29-4,4.68-7.42,9.67-11,14.63-6.59,9-11.78,18.34-12.95,29.67-.44,4.25.3,9.39,2.76,13s6.84,7.34,10.82,8.72c4.78,1.67,10.32,1.66,15.4,1.67a2.7,2.7,0,0,0,2.17,2.2,66,66,0,0,0,18.92,1.12,2.69,2.69,0,0,0,.5,0l.17,0a2.28,2.28,0,0,0,1.82,1.14,7.09,7.09,0,0,0,.79,0v0c3.26.2,6.45-.83,9.8-.58,3.86.29,7.5,1.75,11.36,2.06,3,.23,6.32,0,8.9-1.71a9.85,9.85,0,0,0,2.58-2.61,19.1,19.1,0,0,0,1.55-2.12c.46-.67.89-1.35,1.32-2.1a2.64,2.64,0,0,0,.33-1.08C296.25,156.11,295.37,148.11,294.23,140.62Zm-23.35-5.18a30.49,30.49,0,0,1-9,7c-6.77,3.13-13.64-.77-20.37-2.34a2.64,2.64,0,0,0-2.07.31l-.14-.18a25.63,25.63,0,0,1-5-14.68c-.1-5.37,3.76-12.16,7.08-16.3,1.73-2.16,4.07-4.72,6.8-5.51a21.41,21.41,0,0,1,8.55-.16,3.2,3.2,0,0,0,.53,0,2.52,2.52,0,0,0,1.29,1.32c2.31.84,3.49,2.3,5.32,3.79s4.08,2.14,5.64,3.84c3.08,3.37,4.17,10.7,3.27,14.92A79.65,79.65,0,0,1,270.88,135.44Z"/><path d="M295.14,160.35c.54-5,1.28-10,.61-15.08-1.45-10.86-3.41-22.44-7.2-32.73-3-8.07-6.44-17.12-13.07-23a64.87,64.87,0,0,0,13.27-15.42c4.09-6.9,8.73-13.82,11.49-21.44,1.44-4,2.89-11.48-.72-14.83-1.61-1.49-4-1.78-6-2.35a18.27,18.27,0,0,0-3.73-.82c.7-2.54,1.42-5.08,2.23-7.6,1.57-4.88,3.59-10.5,3.61-15.71,0-4.16-1.95-7.26-6.4-7.42-3.15-.1-6.31,1-9.51.93-4-.07-7.69-1.9-11.6-2.74-4.53-1-10-1.57-14.37.54-4.57,2.22-5.08,8-5.35,12.51a30.67,30.67,0,0,0,.06,4.07,63.9,63.9,0,0,0-14.13-1.13c-3.05.19-6.48-.73-9.47,0-2.66.66-3.22,2.35-3.64,4.87-.78,4.73-.82,9.61-1.14,14.38-.3,4.44.68,9.35,1.26,13.76a66,66,0,0,0,3.16,13.79,31.87,31.87,0,0,0,6,10.48,63.54,63.54,0,0,0,4.81,4.76c2,1.77,4.68,3,6.35,5l0,0c-5.53,3.19-10.44,8.48-14.22,12.74-8.26,9.3-15.61,19.69-20.6,31.13a53.76,53.76,0,0,0-4.58,16.54c-.46,5.5,1.85,9,4.84,13.41a1,1,0,0,0,.17.21l0,.05h0c1.39,1.27,2,2.6,3.68,3.64a21.39,21.39,0,0,0,5.38,2.49c5.5,1.68,11.44,2.48,17.08,3.67,5.06,1.06,10.16,1.56,15.22,2.61s10.56.73,15.78.93,10.15,2.25,15.39,2.11c3.61-.09,8.46.28,11-2.76S294.72,164.36,295.14,160.35Zm-1-122c3.66,1,5,2.58,4.84,6.51-.31,6.85-3.5,11.56-6.37,17.54a78.35,78.35,0,0,1-18.21,24.78,1.18,1.18,0,0,0-1.13.65,26.29,26.29,0,0,0-4.3-2.47c7.51-10.21,12.14-23,16.2-34.87,1.49-4.35,2.67-8.79,3.87-13.23C290.72,37,292.6,37.9,294.15,38.32Zm-57.68,39.5c-3-2.82-5.76-5.63-7.71-9.27-4.2-7.87-4.73-16.87-5.82-25.53-.46-3.67,0-7.06.08-10.71s-.86-10.45,3.41-11.84c2-.66,5.73.32,8,.18a61.88,61.88,0,0,1,14.09,1.18h.13c.22,2,.46,3.92.54,5.9a112.86,112.86,0,0,1-.65,12.19c-.56,8.56-2.35,17.1-4.24,25.46a1.26,1.26,0,0,0,2.46.53c3.31-14.61,5.8-29.52,4.32-44.52a36.52,36.52,0,0,1,.77-12.5c1-4.17,5-5,8.84-5.06,7.41-.18,13.81,3.88,21.2,3.52,3.73-.19,10.32-2.9,11.13,2.65.51,3.45-.81,6.62-1.81,9.8-1.62,5.15-3,10.46-4.38,15.74a1.38,1.38,0,0,0-.23.88l-1.23,4.7A173.93,173.93,0,0,1,277.22,64c-3,7.09-6,14.14-10.64,20.32a41.59,41.59,0,0,0-16.4-2A18.07,18.07,0,0,0,243.9,84a1.11,1.11,0,0,0-.16-.24C241.72,81.32,238.78,80,236.47,77.82Zm54.85,88.05c-1,2.5-2.32,4.89-5.09,5.89-1.63.58-4.83.44-6.53.47-4.33.07-8.39-1.59-12.68-2-5.23-.49-10.57.08-15.78-.64-2.5-.35-4.87-1.22-7.35-1.65-2.32-.41-4.69-.4-7-.77-4.79-.76-9.54-2-14.31-3a33.54,33.54,0,0,1-7.94-2.2c-2.44-1.14-3.63-2.79-5.48-4.49-2.81-4.16-5-7.63-4.25-12.85a56.19,56.19,0,0,1,4.51-15.17,114.78,114.78,0,0,1,15.09-24.05c5.67-7.17,12.12-14.44,20.17-19,5.7-3.21,14.62-2.23,21.31.32a1.43,1.43,0,0,0,1.08.44,27.18,27.18,0,0,1,3.15,1.56c7.84,4.59,11.8,13.75,14.92,21.84,3.48,9,5.55,18.72,7.11,28.24.72,4.34,1.57,8.67,1.25,13.08S293,161.62,291.32,165.87Z"/><path d="M273.06,128c1.81-12-5.38-22.12-16.77-25.77a1,1,0,0,0-1,.14c-10.59-1.09-19.77,8.72-21.32,18.74a23.7,23.7,0,0,0,2.23,14.7c2.72,5,8.22,7.49,13.6,8.53A22.46,22.46,0,0,0,266,141.11C270,138.39,272.37,132.57,273.06,128Zm-8.46,11a20,20,0,0,1-14.27,2.86c-4.44-.84-9.37-2.91-11.72-7a20.65,20.65,0,0,1-2.27-12.31c.95-9.33,9.48-19.44,19.62-17.62a1.38,1.38,0,0,0,.58,0c8.92,3.2,14.84,11.25,14.1,20.8C270.29,130.17,268.47,136.31,264.6,139Z"/></g></svg>