<svg xmlns="http://www.w3.org/2000/svg" viewBox="0 0 328.15 169.98"><defs><style>.afe9107d-65c8-4b05-96ae-b4db7d160e7d{fill:#f4dc48;}.ba03ef4a-247e-4b8d-a004-8a41ca336d25{fill:#e92477;}.a53b937b-bc8c-4d38-ac02-83c2ae7c2cf6{fill:#8dc63f;}.e610ab28-048a-496a-87ca-a397f8bfc7ec{fill:#47b1e1;}</style></defs><g id="bf6b682c-282f-436a-8154-84111e8304dc" data-name="Layer 4"><path class="afe9107d-65c8-4b05-96ae-b4db7d160e7d" d="M218.8,107.1c.9-3.72,1.86-7.43,2.53-11.21.76-4.32,2.31-8.19,3.42-12.4,1-3.77,1.8-8,3.17-11.61a3.48,3.48,0,0,0,0-2.54c1.18-3.78,2.58-7.34,2.95-11.51.26-3.06-2.81-4.6-5.38-3.7l-.55.2a3.14,3.14,0,0,0-1.82,4.6c-.77,5.21-2.87,10.09-4.08,15.22s-4.3,9.29-5.62,14.22-3.12,9.87-4.23,14.94c-.69,3.12-1.39,6,.65,8.79a3.87,3.87,0,0,0,4.51,1C217,112.06,218.16,109.72,218.8,107.1Z"/><path class="afe9107d-65c8-4b05-96ae-b4db7d160e7d" d="M189.25,95c.64-3.22,1.7-6.28,2.41-9.51q2.34-10.62,4.42-21.31a3.49,3.49,0,0,0,0-1.2c1-4.11,2-8.21,3.24-12.25,2.41-1.4,3-5.68-.45-6.9a3.57,3.57,0,0,0-2.56,0,3.32,3.32,0,0,0-3.51,2.43c-1.8,5.54-2.77,11.24-4.33,16.83-1.44,5.13-3.18,10.2-4.45,15.38-1.14,4.64-3,9-4.14,13.61-.88,3.64-1.95,7,1.37,9.75,1.38,1.14,3.27.7,4.6-.2C188.06,100.15,188.76,97.46,189.25,95Z"/><path class="ba03ef4a-247e-4b8d-a004-8a41ca336d25" d="M211.15,101.62c1-4.68,2-9.49,2.73-14.23a2.84,2.84,0,0,0-.09-1.32,65.17,65.17,0,0,0,3.42-11.5l.12-.21c1.22-2.84,2.14-5.81,3.35-8.66s3-5.91,3.75-9a3,3,0,0,0-2.55-3.92c-3.55-.46-6-2.61-9.11-4a13.61,13.61,0,0,0-5.08-1.65,3,3,0,0,0-5.06-.45C199,52,198.16,60,196.94,66.42a71.39,71.39,0,0,0-3.3,12.45,2.59,2.59,0,0,0-1.17,1.46c-1.32,4-2.66,8.62-2.78,12.9a2.71,2.71,0,0,0,.13.91,2.09,2.09,0,0,0-.08.23c-1.07,4-3,9.14,2.12,11.18a5.09,5.09,0,0,0,1.82.4c1.76,2,5.9,3.27,8.83,3.08a4,4,0,0,0,2.2,1.9,3,3,0,0,0,2.87-.52C209.81,108.37,210.51,104.49,211.15,101.62Z"/><path class="a53b937b-bc8c-4d38-ac02-83c2ae7c2cf6" d="M179.7,93.84c1.22-3.75,2.29-7.59,3.41-11.36,1.53-5.16,3.72-10.16,5.47-15.26,1.58-4.63,2.24-9.25,3.13-14,.59-3.18,3.69-9.17.14-11.55a32.49,32.49,0,0,0-4.37-1.93,23,23,0,0,0-6.38-1.64c-5.22-.78-10.71-2.36-16-1.25a13.87,13.87,0,0,0-9.23,7c-1.39,2.55-2,5.43-3.35,8-.37.69-.82,1.86-1.31,2.86l-.6-1a49.48,49.48,0,0,1-5.1-11.11c-.22-.65-.45-1.29-.68-1.93a2.38,2.38,0,0,0,0-1.18,15.81,15.81,0,0,0-2.15-4.26c-1-2.37-2.09-4.73-3.09-7.07-1.49-3.45-3.15-9.69-6.55-11.75a2.77,2.77,0,0,0-.61-.27L132.3,16c-.92-2-1.58-4.07-3-5.8a.34.34,0,0,0-.06-.06A2.51,2.51,0,0,0,125.59,9,43.38,43.38,0,0,0,116,16.76a9.59,9.59,0,0,0-2.64,3.43,6.75,6.75,0,0,0-.12,2.72c-1.52,0-4.16-.54-5.32-.08-2,.8-3.47,2.85-4.46,4.66-1.55,2.84-2.3,6.31-3.44,9.33s-2.44,5.53-2.94,8.67c-.44,2.82.4,3.45,1.54,5.73a6.06,6.06,0,0,0,.38.67,7.09,7.09,0,0,0,0,.86c.08,1.34-.27,2.68-.06,4.06a37.9,37.9,0,0,0,2.23,7.46,2.63,2.63,0,0,0-.67,1.11c-1,3.16,1.89,8.59,3.81,10.91,3.29,4,8.09,1.29,11.67-.83,2.29-1.35,4.2-3.24,6.45-4.64a54.73,54.73,0,0,1,8.14-3.89c1-.43,2-.87,2.93-1.34a2.38,2.38,0,0,0,2.16.24A13.37,13.37,0,0,0,140,64c1.5-1.09,3.08-2.57,4.94-3.06.18.27.37.53.57.79a2.33,2.33,0,0,0-.38.81c-1.12,4.15.41,8.76,1.15,12.89S147,84,150,87.4c3.3,3.69,7.92,4.58,12.31,6.39,4.69,1.93,9.53,3.15,14.25,5l0,0,.22.08C180.06,100,181.93,95.71,179.7,93.84Z"/><path class="a53b937b-bc8c-4d38-ac02-83c2ae7c2cf6" d="M326.88,92.84c.12-2.27.52-5.2-.72-7.28-1-1.71-2.77-2.08-4.55-2.43a6.48,6.48,0,0,0,0-1,8.69,8.69,0,0,0-.31-1.5,27.58,27.58,0,0,0-1.36-4c-1-2.3-2-4.72-3.14-7a3,3,0,0,0-2.21-1.54c1.17-2-.47-5-3-4.42-7.64,1.8-15.22,8-21.56,12.35a2.85,2.85,0,0,0-.66.63l-1.64.91a62.42,62.42,0,0,0-11,7.94c-3.15,2.8-6.52,5.25-9.38,8.36a2.9,2.9,0,0,0,0-.51,59.07,59.07,0,0,0-2.2-9.4c-.77-2.85-1.73-5.82-2.7-8.61-1.57-4.55-5.94-8.34-10.46-9.91-.12,0-.23,0-.35-.08a3,3,0,0,0-1.09-.78c-3.72-1.6-6.89-4.25-10.54-6.06a3,3,0,0,0-3.29-1c-1.22-1.74-4.34-2.07-5.19.53-3.05,9.35-4.51,19.18-7.42,28.59-2.61,8.47-3.69,17.29-6,25.78a3,3,0,0,0,1.78,3.76c4.23,1.88,8.82,4.09,13.47,4.64,2.73.33,5.38-.13,8.1-.35,2.2-.18,4.42-.08,6.35-1.26l.32-.21a2.89,2.89,0,0,0,1.24-.3c4.9-2.48,7.57-7.06,9.87-11.86a3.06,3.06,0,0,0,.24-.7c.31-.4.61-.8.91-1.21,2-2.5,3.91-5,5.69-7.69a3.17,3.17,0,0,0,1.62,3c4.28,5.85,7.67,12.32,12.44,17.83a49.74,49.74,0,0,0,16.51,12.6,3.07,3.07,0,0,0,.73.23c.86,1.23.58.74,2.18-.36,2.31-1.59,4.55-4.46,6.19-6.68,1.84-2.5,4.3-4.43,5.87-7.11.84-1.42,1.06-3.31,1.75-4.81.18-.36.74-.75.93-1.11.22-1.31.78-2.3,1-1.51,1.05-.27,3.25,1.91,4.46,1.64s.81-1.6,1.68-2.32C325.59,105.24,326.63,97.83,326.88,92.84Z"/><path class="afe9107d-65c8-4b05-96ae-b4db7d160e7d" d="M232.23,56.62l0-.09A2.94,2.94,0,0,0,226.87,59l0,.1a2.94,2.94,0,1,0,5.31-2.52Z"/><path d="M327.34,98.44C328.61,94,329.28,80,322.25,80h-.38a30.59,30.59,0,0,0-2.82-8.33c-1.25-2.42-2.69-5.66-4.76-7.55-5-4.52-11.4.89-15.83,3.65-6.33,3.94-12.59,8.06-18.62,12.43a59.4,59.4,0,0,0-7.91,7.47,51.45,51.45,0,0,0-3.95,4.4,9,9,0,0,0,0-1.14,70,70,0,0,0-1.19-8.39c-.86-4.64-1.53-9.07-5.18-12.44C257.12,66,250.93,63.46,245.46,61c-5.62-2.57-11.06-5.66-16.82-7.91-2.88-1.12-5.49-2.73-8.47-3.59-3.17-.93-6.23-2.12-9.35-3.23-6.25-2.24-12.81-3.7-19.21-5.41-5.49-1.47-10.63-4.1-16.26-5-5-.82-10.78-1.11-14.87,2.32-4.38,3.67-7.18,8.91-9.42,14.11q-.26-.61-.48-1.2c-1.15-3.2-2.16-6.37-3.49-9.52-1.72-4-3.74-7.75-5.06-11.95-.86-2.75-1.46-5.61-2.89-8.13a59.92,59.92,0,0,0-5.69-8c-1.57-1.93-3.46-5.6-5.85-6.64-1.62-.7-2.77,0-4.16.88a36.14,36.14,0,0,0-7,5.29c-2.78,2.74-5,4.92-4.55,7.91-2.45.51-4.94.25-6.95,2.09s-2.74,5.06-3.65,7.6c-2,5.52-6.1,11.73-4.91,17.9a3.74,3.74,0,0,0,1.87,2.8,12.46,12.46,0,0,0-1.19,7.07,63.6,63.6,0,0,0,3,12c1.45,4.36,3,11.65,9,9.83,7-2.1,13.61-6.41,19.93-9.94a73.21,73.21,0,0,1,9.45-4.43,19.36,19.36,0,0,0,5.38-2.47,6.78,6.78,0,0,0,.81,1.37c-.28,2.69.26,5.61.33,8.28a57.63,57.63,0,0,0,1,9.18c1.22,6.4,5.15,9.72,11,12.14,15.19,6.28,31.18,11.13,46.7,16.68,8,2.87,16,6.32,24.26,8.39,5.87,1.48,12.42,2.84,18.48,1.64a18.31,18.31,0,0,0,8-4.07c2.54-2.14,3.81-5.07,5.88-7.59,2.53-3.08,4-6.25,6-9.69.09-.15.19-.3.29-.45,1.05,2.47,1.59,5,3.06,7.44a48.75,48.75,0,0,0,6.68,8.59A94,94,0,0,0,292.78,129c1.6,1,4,3.46,6.07,3.18s4.21-2.89,5.53-4.15c4.57-4.34,8.18-10.68,10.34-16.62,2.43.36,5.15.51,7-.89C324.68,108.16,326.37,101.85,327.34,98.44Zm-182.14-41a29,29,0,0,0-1.5-5.86c-.61-1.5-2.88-.42-2.27,1.08.69,1.69.87,5,1.53,7.92-1.65,2-4.64,2.45-7,3.42-2.16.91-4.31,2-6.42,3-5.26,2.56-10.1,6-15.52,8.24-1.76.74-4.74,2.8-6.62,2.72-3-.13-4.53-7.14-5.27-9.51a72.77,72.77,0,0,1-2.24-8.18,22.74,22.74,0,0,1-.59-4.49,9,9,0,0,1,1.23-3.85c3.15.54,6.73.25,9.87.27s6.54-.11,9.79-.21c3-.08,7.28.48,10.26-.35,1.55-.43,1.11-2.9-.46-2.47-2,.56-4.44,0-6.53.13-2.41.13-4.8.15-7.21.13-2.6,0-5.17.28-7.78.14-1.87-.11-5.36.68-7.13-.06a1.32,1.32,0,0,0-1.29-.83c-3.56-3.22.89-10.46,2.3-13.86.92-2.22,1.55-4.55,2.45-6.78,1-2.47,1.39-3.57,4.62-4.37,1.08-.26,2.2-.22,3.31-.47.16.28.34.58.55.88,4.14,6,10.26,10.62,15.48,15.64a1.22,1.22,0,0,0,.62.58l.25.12c1.11.49,2.28-1.13,1.39-2-3.63-3.53-7.57-6.79-11.06-10.46a52.27,52.27,0,0,1-4.18-4.74c-2.33-3.11-.18-6,2.23-8.36a34.28,34.28,0,0,1,5.45-4.23,8.79,8.79,0,0,1,1.56-1.06c1.46-.29,2.95,1.32,3.81,2.2A56,56,0,0,1,137.06,23c2.32,4.11,2.88,9.18,4.84,13.5a120.2,120.2,0,0,1,5.43,13c1.07,3.35,4.74,8.76,2.47,12.09C147,65.75,145.58,59.46,145.2,57.43ZM164,94.51c-6.73-2.36-14.13-5.15-15.66-12.89a52.87,52.87,0,0,1-.92-8.52c-.05-1.91-.48-4.71-.46-7h0c4.27.6,6.42-4.37,6.09-7.8a13.34,13.34,0,0,0-1-3.5,1.21,1.21,0,0,0,.86-.74c2.59-6.2,6.62-15,14-16.1s13.61,2.29,20.36,4.37c1.77.54,3.57,1,5.37,1.47-1.53,4.91-2.5,10-4,15-1.57,5.18-3.1,10.36-4.68,15.54-2.5,8.23-3.7,16.84-5.93,25.09Q171.09,97,164,94.51Zm16.51,5.71c2.23-8.26,3.46-16.83,5.92-25.06,1.48-4.93,3-9.84,4.45-14.78,1.54-5.26,2.66-10.78,4.31-16,1.93.47,3.87.93,5.8,1.42l-.06.09c-2.34,4.11-3.05,8.54-4.28,13.06-1.32,4.87-2.89,9.73-4,14.66-1.15,5.24-2.45,10.45-3.62,15.68-.57,2.58-1.24,5.37-2.06,7.88-.51,1.57-.73,3.27-1.26,4.83ZM203,108c-4.92-1.76-9.86-3.47-14.8-5.17,1.23-3.24,1.81-6.83,2.73-10.15,1.39-5,2.43-10.24,3.58-15.34,1.11-4.92,2.56-9.71,3.82-14.58C199.6,57.64,200.39,52,203,47.35a1.28,1.28,0,0,0,.13-1c1.39.39,2.77.79,4.14,1.25,5.55,1.87,11,3.92,16.35,6.12a1.17,1.17,0,0,0-.32.5c-3.78,10.57-6.49,21.44-10.12,32.05-2.61,7.64-4.1,15.49-6.15,23.23C205.68,109,204.31,108.49,203,108Zm6.49,2.45v-.11c2-7.74,3.49-15.57,6.14-23.19,3.69-10.59,6.34-21.48,10.12-32.06a1.12,1.12,0,0,0,.07-.47l.68.28c1.61.67,3.21,1.38,4.81,2.1-3.65,10.19-5.28,21-8.92,31.2a187.19,187.19,0,0,0-6.69,24.68C213.56,112.09,211.49,111.27,209.44,110.46Zm56.68-14.94c-1,1.82-2.82,3.94-3.47,5.19a35.82,35.82,0,0,1-4.52,7.12c-2.33,2.78-3.5,5.78-6.58,8s-6.45,2.9-10.21,3c-7.85.14-15.7-2.19-23.32-5a208.2,208.2,0,0,1,7.14-25.9c3.37-9.77,4.94-20.07,8.39-29.81,4.08,1.9,8.13,3.89,12.14,5.84,6.17,3,14.42,5.59,17.15,12.5,1.18,3,1.53,6.65,1.93,9.83.1.84.77,3.14.81,4.44a29.47,29.47,0,0,1-7.21-5.44c-1.17-1.11-3.1.5-1.93,1.61A35,35,0,0,0,264,92.67c-.55.31-1.11.58-1.44.77-4.23,2.53-7.34,7.51-9.37,12a1.05,1.05,0,0,0-.64,1.62l.23.38a1.28,1.28,0,0,0,2.32-.12,42.4,42.4,0,0,1,4.44-7.5,16.73,16.73,0,0,1,4.71-4.47c.77-.5,1.72-.79,2.48-1.32,0,0,0,0,0,0q-.24.45-.45.9A1.36,1.36,0,0,0,266.12,95.52ZM317.6,109c-3.32.23-6.94-.74-10.23-1.17-3.68-.48-7.53-1.74-11.16-2.64s-7.15-2-10.62-3.24a1.26,1.26,0,0,0-.85,2.37A150.89,150.89,0,0,0,312.18,111a46.89,46.89,0,0,1-8.73,14.35,14.38,14.38,0,0,1-3.58,3.21c-1.62.79-2,.33-3.64-.49-2.26-1.13-4.19-2.8-6.35-4.09-5.09-3-9.3-7.58-13.25-12a43.6,43.6,0,0,1-5.52-7.63c-1.26-2.24-1.57-4.58-2.61-6.82A1.17,1.17,0,0,0,268,97,8.16,8.16,0,0,0,269,95c1.41-2.6,3.91-4.83,5.9-6.87a49.76,49.76,0,0,1,5.55-5.32c4.37-3.28,9-6.25,13.53-9.3,2.85-1.92,5.81-3.78,8.77-5.54,2-1.19,5.45-3.59,7.84-3.14,2.85.53,4.65,5,5.85,7.27A29.38,29.38,0,0,1,319.29,80l0,.17a43.13,43.13,0,0,0-10.63,2.5c-5.88,2.17-12,3.84-18,5.66-1.54.47-1.09,3,.46,2.47,3.32-1,6.59-1.92,9.91-3,4.21-1.39,8.93-3.53,13.3-4.31,1.54-.28,3.14-.24,4.7-.46,2.77-.4,5.11.6,5.73,3.52a24.26,24.26,0,0,1-.71,13.74C322.84,103.69,321.72,108.67,317.6,109Z"/><path class="e610ab28-048a-496a-87ca-a397f8bfc7ec" d="M106.63,105.66C105.35,101,103,94.92,99.07,91.89a66.49,66.49,0,0,0-14.48-8.65c-5.14-2.23-10.2-5-15.86-2.88a9.05,9.05,0,0,0-4.5-.32A3,3,0,0,0,61.76,82a11.94,11.94,0,0,0-6.25-1.11,6.63,6.63,0,0,0-.76.11c-2.22.4-4.12,1.53-4.81,3.61a2.46,2.46,0,0,0-.1.47,7,7,0,0,0-2-.82,8.07,8.07,0,0,0-3.28-.06,3.1,3.1,0,0,0-1.18,0,3.42,3.42,0,0,0-2.29.59c-1.72,1.12-3.32,2.37-5.06,3.45A3.48,3.48,0,0,0,34.25,91c-.14.15-.27.31-.41.47a4.19,4.19,0,0,0-.87,1.4A16.28,16.28,0,0,0,29.4,96.6a3.39,3.39,0,0,0-1.58,1.24c-2.94,4-5.73,8.14-6.35,13.19a4.43,4.43,0,0,0,0,1,44,44,0,0,0-1.76,11,3.25,3.25,0,0,0,1.48,3,33.34,33.34,0,0,0,3.89,14c.61,3.2,2.77,6.33,4.43,8.89,2.95,4.56,6.94,9.43,11.57,12.32a3.21,3.21,0,0,0,3,.33c.27.17.54.33.82.48,3.19,2.52,6.85,4.72,10.46,5h0a25.75,25.75,0,0,0,6.27,1.68,4.31,4.31,0,0,0,4.27-2.31,5.75,5.75,0,0,0,5.52-.49c.26,0,.52-.1.77-.17a3.35,3.35,0,0,0,4.42,2.15c5.07-1.73,9.61-4.85,14.07-7.76,4.19-2.74,7.79-5.72,10.49-10A40.81,40.81,0,0,0,106,138.11a22,22,0,0,0,.43-2.7,13.87,13.87,0,0,0,2-9c0-.42-.1-.85-.18-1.3.72-2.42,1.25-4.25.75-6.84a3.26,3.26,0,0,0-.54-1.27c0-.13,0-.27,0-.4A40.59,40.59,0,0,0,106.63,105.66Z"/><path class="e610ab28-048a-496a-87ca-a397f8bfc7ec" d="M68.79,27.45a13.73,13.73,0,0,0-2.9-.77c0-5-.66-10.67-4.9-12.49C58.27,13,56,14,54.22,16c-.1-.14-.21-.27-.32-.41a3.21,3.21,0,0,0-1.73-1.16c-.72-3.63-1.89-7.42-4.09-9.87-3.91-4.36-8.59-1.12-10.82,3a42.35,42.35,0,0,0-1.85,3.86C32,6.32,24.63,2.47,19.57,7.66c-3.34,3.42-5,9.62-4.6,14.91-3.05-1.69-6.86-2.37-9.23-1.11C.13,24.44,2.05,32.92,2.25,38A41.55,41.55,0,0,0,4.52,48.94C5.36,51.62,6.25,55.2,8.57,57a5.32,5.32,0,0,0,.67.42c.64,1.3,1.27,2.45,1.72,3.31l.4.79a4.07,4.07,0,0,0,.45,1c.07.1.14.19.2.29,1.7,3.36,4.24,7.82,7.66,7.81.28.27.57.53.87.79a53.25,53.25,0,0,0,7.81,5.48c.64.37,1.28.74,1.94,1.1a3.56,3.56,0,0,0,2.47.41c2.39,2.59,6.07,2.06,7.54-1.33a6.74,6.74,0,0,0,.49-1.79,4.19,4.19,0,0,0,1.51-.49c1.9-1.07,3.41-2.41,5.71-2.61,2.55-.22,4.07,1.87,6.49,2,4.93.33,8.8-6,12-8.88a34.45,34.45,0,0,0,8.73-12c2.15-4.67,5.18-10.67,3.7-15.93C77.71,32.93,73,29.11,68.79,27.45Z"/><path class="afe9107d-65c8-4b05-96ae-b4db7d160e7d" d="M55.08,73.84h-.42c-2.06-1.95-4.4-3.74-7.42-2.62-2.76,1-5.63,4-7.18,6.4-2.29,3.57,2.45,6.74,5.44,4.82a3.51,3.51,0,0,0,2.62.18c1.77-.52,3.57-.83,5.32-1.3a15,15,0,0,0,1.78.06C60.06,81.09,59.93,73.54,55.08,73.84Z"/><path d="M106.88,101.37a38.93,38.93,0,0,0-21.5-20.62C81,79.07,75.8,78.5,71.09,78.23a44.27,44.27,0,0,0-7.46-.09c-.6.07-2.41,1-3.53,1.29l-.24-.06a10,10,0,0,0-1.77-5.7C68.32,67.89,76.12,56,79,44.8c1.24-4.78,1-10.22-2.67-14-1.64-1.68-6-4.07-8.83-3.71l-.24-2C66.7,20.62,66,14.35,61.93,11.52c-2.63-1.85-5.24.13-7.12,2.29C52.93,8.16,49.93.37,43.42,0,39-.24,36.36,4.25,34.8,8.92a24.53,24.53,0,0,0-7.15-4.71c-3.2-1.52-5.38-1-8.15,1.29C15,9.23,13.62,15.73,13.39,21.77,8.7,19.84,2.27,18.68.71,24.79-1.35,32.85,1.43,42,4.34,49.44a80.34,80.34,0,0,0,5.79,11.91c2.45,4.08,5.43,6.83,8.94,10,3,2.72,5.88,5.43,9.49,7.39a24.32,24.32,0,0,0,9.73,2.52A10.21,10.21,0,0,0,39,83.94a2,2,0,0,0,0,.34l-.23.18c-2.35,2.26-5.15,4.1-7.47,6.48a45.52,45.52,0,0,0-7.68,11.19,43.38,43.38,0,0,0-4.34,26.1c2.62,17.34,17.69,32.91,33.71,39,7.8,2.95,17.19,4.09,25,.68,9.4-4.09,17.52-8.87,23.51-17.33C111.53,136.5,113.94,117.1,106.88,101.37ZM67.76,29.58c.9-.21,3.79,1.16,4.36,1.44A9.11,9.11,0,0,1,77,37.3c1.22,4.83-1.35,10.12-3.27,14.45-3.51,7.92-9.68,15.81-17.34,20-.24-.19-.5-.38-.77-.56,3.45-2.63,6.09-7.19,7.81-10.91,2.42-5.24,3.45-11.84,4.2-17.53A61.1,61.1,0,0,0,67.76,29.58ZM61.85,15.26c3.19,3.81,3.26,11,3.49,15.81a58.29,58.29,0,0,1-.76,14.57c-.91,4.44-1.46,9.31-3.37,13.45-1.63,3.54-4.13,8-7.5,10.39a1.35,1.35,0,0,0-1.41.24,11.68,11.68,0,0,0-3.49-.52,74,74,0,0,1-.7-28.56c1-5.08,2.14-10.2,3.46-15.2C52.44,22.15,57.26,9.78,61.85,15.26ZM57.38,78.88a1.8,1.8,0,0,0-.2.19c-1.48.35-3.08.34-4.56.8a22,22,0,0,0-4.75,2l-.37-.11A9.28,9.28,0,0,0,44,82c-.66.12-1.81.68-2.71.84-1.56-4.53,1.78-9.32,6.3-10.61a8.21,8.21,0,0,1,7.09,1.52C55.48,74.33,57.37,77.17,57.38,78.88Zm-21-66.49a1.14,1.14,0,0,0,.27-1,21.26,21.26,0,0,1,1.48-3.66c1.23-2.33,2.69-5.5,6-5.08,2.17.28,3.52,2.2,4.58,3.85A42.75,42.75,0,0,1,53,16.24c-3.28,4.93-4.26,10.47-5.61,16.19-2.88,12.19-3.72,24.9-1,37.24a7,7,0,0,0-.8.36.5.5,0,0,0,0-.13c-2.32-6.62-5.13-12.67-6.92-19.5a88.65,88.65,0,0,1-2.87-21.58C35.7,23.18,35.05,17.71,36.4,12.39ZM16.82,15.52c.77-3.29,2.34-8,6-9.25S31.72,8.83,34,11.78a44.2,44.2,0,0,0-.92,4.85c-.58,4.32.15,8.5.13,12.82a114.12,114.12,0,0,0,1.4,14.75C35.8,53.63,40,61.79,43.1,70.61a1.2,1.2,0,0,0,.48.64,19.37,19.37,0,0,0-1.91,1.69c-2.16-2.36-5.38-4.15-7.8-6.3a42.71,42.71,0,0,1-7.81-8.47C22,51.86,18,43.8,16.76,36.39,15.63,29.76,15.27,22.1,16.82,15.52Zm5.43,55.32c-2.64-2.45-5.72-4.62-7.89-7.51A47.65,47.65,0,0,1,9.7,55.26,70.21,70.21,0,0,1,3.17,36c-.44-2.68-1.49-8.33,0-10.65,2.44-3.83,6.78-2.48,10.2-.9,0,1,.05,2,.1,3,.22,4.08.35,8.31,1.51,12.25a89.92,89.92,0,0,0,5.85,14.1,40.87,40.87,0,0,0,7.94,11.51c1.83,1.8,3.75,3.5,5.71,5.15,1.5,1.26,3.61,2.49,5.1,3.9a1.32,1.32,0,0,0,.33.6,8.45,8.45,0,0,0-1.57,3.75C31.85,78,27.12,75.34,22.25,70.84Zm81,71.59A40,40,0,0,1,88,159.93c2.56-6.3,3-13.38,2.39-20.07a1.27,1.27,0,0,0-1.28-1.23l-.25,0a1.35,1.35,0,0,0-.92,2.15c.52,7-.09,14.47-3.49,20.79a1.3,1.3,0,0,0-.16.52,61.91,61.91,0,0,1-7.1,3.43c.28-2.71,1-5.38.89-8.12-.07-3.62-1.12-7-2.14-10.47a1.26,1.26,0,0,0-2.41.71c1.06,3.61,2.17,7.16,2,11-.08,2.11-.54,4.19-.8,6.29-5.76,1.2-11-.48-15.83-3.73a72.92,72.92,0,0,1-7.11-5.78c-1.74-1.51-5.25-3.64-6.05-5.95-.52-1.53-2.94-.82-2.41.71.85,2.48,3.08,4,5,5.58a107.06,107.06,0,0,0,9.37,7.65,31.14,31.14,0,0,0,8.52,3.94,48.87,48.87,0,0,1-6.58-.87c-15.82-3-31.27-17.3-36.28-32.49a39.73,39.73,0,0,1,1.9-29.37,44.32,44.32,0,0,1,8.4-12.42c2.18-2.19,4.8-3.9,7-6a1.11,1.11,0,0,0,.37-.84,13.22,13.22,0,0,0,2.05-.53c.51-.14,1-.25,1.42-.33a21.37,21.37,0,0,0-4.68,6.14,50,50,0,0,0-4.28,11.75c-.44,2.16-.8,4.36-1.06,6.55-.24,2,.12,4.23-.17,6.22-.24,1.59,2.21,2.2,2.44.6.44-3,.13-6,.6-9.08A51.77,51.77,0,0,1,41,94.13a21.57,21.57,0,0,1,6.79-9.08l.16-.11a7.23,7.23,0,0,1,1.21,1c2.77,2.82,3.71,8,4.91,11.9a1.25,1.25,0,0,0,.85,1.63l.34.09A1.26,1.26,0,0,0,56.76,98c-1.49-4.32-2.33-10.24-5.53-13.7a11.7,11.7,0,0,0-.87-.84,16.69,16.69,0,0,1,3.5-1.33c1.34-.34,2.68-.32,4-.62a1.85,1.85,0,0,0,.27.19,3,3,0,0,0,1.78.32A32.53,32.53,0,0,1,65,84.7,26.27,26.27,0,0,1,72.15,91,44.75,44.75,0,0,1,81,106.86a1.26,1.26,0,0,0,2.41-.71l0-.19,0-.06a47.6,47.6,0,0,0-10.2-17.71,33.72,33.72,0,0,0-9.42-7.42l.13,0c4-.65,8.77,0,12.71.57,8.92,1.41,16.91,5.39,22.83,12.38C110.85,107.32,110.35,127,103.27,142.43Z"/></g></svg>