<svg xmlns="http://www.w3.org/2000/svg" viewBox="0 0 655.64 190.56"><defs><style>.b7add680-accf-4dfa-869b-7ecf1c0368aa{fill:#47b1e1;}.ba5ade3f-4cc5-4328-9905-43bdd829141e{fill:#f4dc48;}.bd95779d-a2b1-414f-b7cd-418d1408dcd8{fill:#e92477;}.bd40eeb2-f20f-4477-af24-9eaba1a2a662{fill:#8dc63f;}.b5dd677d-9821-4f5e-87d3-bb6d043789f5{fill:#ef692f;}</style></defs><g id="a90f903f-9bc5-4a03-81d0-093271bef529" data-name="Layer 4"><path class="b7add680-accf-4dfa-869b-7ecf1c0368aa" d="M474.46,21.72c.15-3.72.15-7.41.09-11a2.75,2.75,0,0,0-.82-2,14.34,14.34,0,0,0,.61-3.09c.21-3.55-4.29-4.73-6.48-2.57a2.92,2.92,0,0,0-.76.35c-.79.53-1.49,1.15-2.23,1.72a3,3,0,0,0-2.46,2.66l0,.13a4.52,4.52,0,0,0,1.24,3.76c0,.09,0,.17,0,.26a47.07,47.07,0,0,1,1,10.26,3.4,3.4,0,0,0,1.24,2.66c-.14,6.77-.7,13.46-1.09,20.24-.23,3.86-2.12,8.95,3,10.29,6,1.59,5.66-7.63,5.83-11.25.11-2.33.3-4.66.45-7a43.77,43.77,0,0,0,.92-7.55C475,27.25,475.33,24.14,474.46,21.72Z"/><path class="b7add680-accf-4dfa-869b-7ecf1c0368aa" d="M359.71,6.74c-2.62-.22-5.41-.62-7.49.84a3.23,3.23,0,0,0-4,2.71,68.42,68.42,0,0,0-.38,8.94,3.48,3.48,0,0,0-.21.48c-2.08,6.06-.13,13.35,1.28,19.53.14,7-1.67,19.27,4.33,24.43a3,3,0,0,0,3.55.46L357,64c1.48.42,1,.87,2.11-.36,2.7-3,.89-9.59-.15-12.48l0-.08c-.18-3.72-.31-7.43-.3-11.15,0-9.65-.47-19.81,3.65-28.8A3,3,0,0,0,359.71,6.74Z"/><path class="ba5ade3f-4cc5-4328-9905-43bdd829141e" d="M351.29,60.09a49.66,49.66,0,0,0-1.91-5.27,4,4,0,0,0-.06-.68c-.66-3.64-1.21-7.33-1.88-11a2.73,2.73,0,0,0-.25-.73,13.27,13.27,0,0,0-.36-3.8,105.15,105.15,0,0,0-1.17-12.38,2.44,2.44,0,0,0-.37-1,93,93,0,0,1,1.81-9.43c.47-2,1.55-4.25.44-6,0-.07,0-.14,0-.21a3,3,0,0,0-2.94-2.94c-2,0-3.87,0-5.46,1.31-.84-.14-1.68-.3-2.51-.39a49.61,49.61,0,0,0-12.93.46c-3.28.51-6.63,1.14-9.95,2-2.7.2-5.44.34-7.85,1.76a3.15,3.15,0,0,0-1,.84,21.34,21.34,0,0,0-8.1,2.8C292.44,18.14,285.38,21.36,284,27a3,3,0,0,0,.15,1.9,16.88,16.88,0,0,0-1.12,3.46A9.9,9.9,0,0,0,280.41,30c-1.36-2.22-4.69-3.88-6.51-5.16-4-2.83-7.65-6-11.59-8.92a2.37,2.37,0,0,0-2.06-.44c-1.72-1.27-4.82-.54-4.76,2.23a24.94,24.94,0,0,0,.89,4.91,16,16,0,0,1-.3,7c-.87,4.21-2.8,7.76-4.1,11.82-1.54,4.87-2.55,14,1.67,18a3,3,0,0,0,2.86.75c3.93-1.29,7.63-5.08,10.66-7.94a2.36,2.36,0,0,0,.57-.1c3.82-1.2,7.35-5.08,10.23-7.73a26.38,26.38,0,0,0,5.21-5.85,15.64,15.64,0,0,0,1.46,4.22,22.75,22.75,0,0,0,5.92,11c3.63,3.92,7.81,8.27,13.48,8.57a3,3,0,0,0,.75-.06c7.11.86,14.34,2,21.48,1.71,4.32-.17,8.61-.28,12.94-.31,3.22,0,6.94.91,10,.13A3,3,0,0,0,351.29,60.09Z"/><path class="ba5ade3f-4cc5-4328-9905-43bdd829141e" d="M466.61,28.28a37.36,37.36,0,0,0-2.24-11.66c-.31-2.63,0-5.13-2.28-6.79a2.93,2.93,0,0,0-3,0c-3.82,1.81-7.14,5.73-10.37,8.4-3.47,2.87-7.14,5.52-10.52,8.5-1-5.55-3.54-11.15-8.32-13.37a57,57,0,0,0-12.23-4.13c-4-.83-8.23-.62-12.33-.9-9.23-.65-18.64-1.63-27.88-1.61l-.2,0c-2.92-1.88-6.77,2.06-3.89,4.32-1-.75-.19-.33-.43.63a7,7,0,0,0-.09,1.52c-.09,2.77-.09,5.59,0,8.35.14,4.17.48,8.41,1,12.54,1.12,8.58-.51,18.25,2.36,26.5,1,3,2.79,3.8,5.79,3.26,4.2-.75,8.37-1.67,12.56-2.46,4.67-.87,9.3-1.33,13.9-2.5a2.69,2.69,0,0,0,1.94.66,24.38,24.38,0,0,0,6.38-1.1,2.28,2.28,0,0,0,2.14.79c4.31-.54,9.86-3.35,11.77-7.67A31.86,31.86,0,0,0,433.83,49a2.52,2.52,0,0,0,.85-1.94c.25-.34.5-.69.72-1.05a23.4,23.4,0,0,0,3.08-9.16c3.32,2.36,6.87,4.49,10.13,6.94A51.5,51.5,0,0,0,461.17,51c2,.7,3.49-1.1,3.72-2.83a81,81,0,0,0,.55-10.38c.12-.63.22-1.26.36-1.84A29,29,0,0,0,466.61,28.28Z"/><path class="bd95779d-a2b1-414f-b7cd-418d1408dcd8" d="M376,60.32a3.63,3.63,0,0,0-.11-.59h0c-.36-1.24-.65-2.51-.91-3.79a16.36,16.36,0,0,0-.34-1.89,75.36,75.36,0,0,1-.83-8.36c0-1.5-.07-3-.13-4.47A2.78,2.78,0,0,0,372.5,39l0-.19c.22-4.52.23-9.08.37-13.61.12-3.86.74-8-.22-11.82a2.75,2.75,0,0,0-.77-1.33c0-.16,0-.33-.05-.49,1.69-1.57.75-5.45-2-5.16-2.08.22-5,.37-6.57,2-1.72,1.78-1.9,5.06-2.19,7.34a26.87,26.87,0,0,0-.2,3.68,31.23,31.23,0,0,0-1,10c-1,4.83-.4,10.09-.08,15,.2,3,.14,6.55.51,9.83a4.29,4.29,0,0,0-.14.62c-.33,3-.44,8.27,3.24,9.3,2.05.57,5.27-.54,7.54-1.56,1.66,1.7,5.32.95,5.09-1.94Z"/><path class="bd95779d-a2b1-414f-b7cd-418d1408dcd8" d="M255.06,37c2.2-7-.45-14-.88-21.09-.24-3.75-6.11-3.78-5.88,0,0,.15,0,.3,0,.44a2.44,2.44,0,0,0-1.18,2.43c.68,9.54-1.57,18.37-2.67,27.79-.64,5.47-1.82,17,6,16.41h0a7.58,7.58,0,0,0,.78-.1c3-.49,2.48-4,.45-5.3-.85-1.72-.61-7.51-.2-9.56C252.38,44.14,253.89,40.68,255.06,37Z"/><path d="M476,13.61c-.53-4.26-.83-9.35-3.28-13A1.29,1.29,0,0,0,471,.17c-11.83,6.93-23.77,14.47-33.39,24.35-.1-.5-.21-1-.31-1.48-2.46-11.86-15.23-14.38-25.53-15-13.85-.87-27.67-2.39-41.55-2.93-7-.27-14.44.23-21.46.67-6.63.42-13.37.55-20,.55s-13.31,1.5-19.67,3c-5.56,1.3-11.74,2.91-16.61,6-4.09,2.61-8.26,6.4-10.12,11a13.75,13.75,0,0,0-.64,2c-2.65-1.3-5.09-3.66-7.59-5.17-3-1.79-5.84-3.69-8.8-5.48a91.62,91.62,0,0,0-9.3-5,1.19,1.19,0,0,0-1-.48h0c-1.91-.84-4.3-2.28-6.48-1.75-4.66,1.14-2.4,7.42-1.92,10.65,1.26,8.61-1.19,16-2.57,24.38-.9,5.46-1.87,11.48.52,16.77.59,1.3,1,2.19,2.47,2.29a7.79,7.79,0,0,0,2.42-.95c2.1-.91,4.23-1.72,6.35-2.58a62.79,62.79,0,0,0,16.15-9.67c3.26-2.66,7.95-5.57,10.66-9.17.24.75.52,1.47.81,2.15,2.4,5.39,6.49,9.73,10.6,13.85,2.12,2.13,4.33,4.21,7.18,5.31,3.08,1.19,6.45,1.2,9.69,1.44,7.71.56,15.44.79,23.16,1.06,4.09.14,8.16.48,12.25.43,1.71,0,3.47-.18,5.23-.32a1.4,1.4,0,0,0,1.55-.13,42.61,42.61,0,0,1,4.51-.13,1,1,0,0,0,1.16.22c.12,0,.24-.08.36-.12.34,0,.69.06,1,.12h.41a1.41,1.41,0,0,0,1-.54c1.53-.07,3.13.09,4.52,0,2.41-.16,4.8-.74,7.2-1,6.78-.67,13.65-.47,20.43-1.29,7.15-.86,14.31-2.19,21.47-2.84,5.64-.52,10.3-2,14.78-5.56,4-3.22,7.9-8,8.91-13.15.14-.73.25-1.47.32-2.2,1,.66,2.2,1.23,2.8,1.56a68.47,68.47,0,0,1,9,5.27c2.95,2.16,6.28,3.54,9.45,5.34.88.49,1.82,1,2.79,1.45a1.26,1.26,0,0,0,.33.16,35.35,35.35,0,0,1,6.73,4,1.29,1.29,0,0,0,1.78,0c2-2.11,1.91-7,2.46-9.66a90.32,90.32,0,0,0,2.26-16.45A117,117,0,0,0,476,13.61ZM249.47,60.81c-1.08.4-1.85,1-2.66.26s-.91-3.58-1.05-4.65c-.76-5.58.82-11.18,2.07-16.59S250,29.37,249.48,23.9c-.24-2.63-1.38-5.61-1.06-8.19.39-3.13,2.92-2.52,5.27-1.48-.14,2.31,1.09,5.74,1.11,7.38.06,5.18-1.26,10.63-2.58,15.6-1,3.79-3.08,8.39-2.82,12.39.22,3.4,2.14,6.72,3.11,10C251.5,60,250.48,60.43,249.47,60.81Zm32.15-21.89c-1.93,3.86-6.66,6.47-9.83,9.19a59.9,59.9,0,0,1-14.35,9.44l-2.58,1.1c-.85-2.77-2.28-5.44-2.78-8.27-.82-4.53,2.1-10.47,3.17-14.82a81.94,81.94,0,0,0,1.92-11.22,23.23,23.23,0,0,0,0-5.07c-.05-.48-.39-2.38-.7-3.68a162.11,162.11,0,0,1,14,8.31c3.5,2.17,7,5.29,10.78,7,0,.5-.07,1-.09,1.51A38.67,38.67,0,0,1,272,30.69c-2-.64-6.88-2.05-7.91-4.09-.72-1.45-2.9-.18-2.17,1.27,1.19,2.36,5.21,3.66,7.51,4.56a38.87,38.87,0,0,0,11,2.42,1.13,1.13,0,0,0-.58.55,8.1,8.1,0,0,0-1.87.33c-1.22.45-2.43,1-3.63,1.48a19.05,19.05,0,0,0-5.45,3.21c-1.21,1.09.58,2.87,1.77,1.78,1.91-1.73,4.54-2.61,6.88-3.57a17.66,17.66,0,0,1,3-.83,2.26,2.26,0,0,0,1-.43c.07.48.14,1,.23,1.41A.64.64,0,0,0,281.62,38.92Zm62.43,24.93c-6.81-.06-13.58-1-20.38-.94-5.06,0-10.06-.28-15.1-.67-4-.31-7.38-1-10.49-3.66a57.35,57.35,0,0,1-6.8-7c-3.38-4-6.17-8.15-7.07-13.47-.62-3.63-.76-8.55,1-11.83a23.32,23.32,0,0,1,7-7.68c3.94-2.86,8.82-4.5,13.5-5.81a103,103,0,0,1,20.43-3.85c7-.46,14-.42,21-.5-3.33,8.64-1.62,19.68-.8,28.52a253.35,253.35,0,0,0,4.39,26.62C348.44,63.69,346.23,63.87,344.05,63.85Zm13.67-29.18c0,5.49,0,10.92.25,16.4.18,4,.07,8.25.84,12.25l-.08,0a41,41,0,0,0-5.54,0c-1.66-8.22-3.36-16.43-4.24-24.82-.51-4.82-.9-9.71-1-14.56-.14-5.05-.22-11,1.9-15.64,3.37-.06,6.73-.15,10.1-.37.42,0,.85,0,1.27-.06C358.14,16.38,357.8,25.77,357.72,34.67Zm17.1,27.08c-1.07.09-2.13.19-3.18.34a80.92,80.92,0,0,1-8.51.85c-.59,0-1.2,0-1.81.05-.91-4.4-.67-9.11-.91-13.56-.27-4.93-.21-9.82-.17-14.76.07-9,.43-18.41,3.66-26.89,2.68-.09,5.36-.1,8,0-.6,3.64-.29,7.7-.21,11.33.12,5,.16,9.9.37,14.85.38,9.12.1,18.62,2.75,27.4A1.29,1.29,0,0,0,374.82,61.75Zm55.3-10.58c-2.37,2.34-6,5-9.29,5.89s-7.22.75-10.73,1.32c-6.34,1-12.65,2.07-19.05,2.56-4.46.34-9,.35-13.49.61-2.88-8.79-2.56-18.45-2.94-27.64-.18-4.26-.24-8.49-.32-12.76s-.64-9.14.18-13.34c7.17.23,14.36.85,21.46,1.55,5.75.57,11.54.85,17.31,1.23,6,.39,12.55,1.45,17.25,5.52,4.92,4.27,5.68,12.26,6.15,18.44C437.15,41.21,434.79,46.54,430.12,51.17Zm34.46-11.55c-.28,3.45-.29,7.36-1.46,10.72-2.41-1.42-4.92-2.61-7.38-3.93-2.82-1.52-5.2-3.67-7.93-5.35-1.57-1-3-1.37-4.61-2.23-.3-.16-3.83-2.37-3.8-2.25a1.31,1.31,0,0,0-.15-.38c0-1-.1-2-.2-3A45.27,45.27,0,0,1,450.9,35c1.91.57,3.89,1.8,5.81,1,1.49-.65.21-2.82-1.27-2.18-.55.25-2.73-.86-3.28-1-1.44-.43-2.87-.81-4.36-1.1-1.7-.33-3.4-.56-5.11-.73.93-.44,1.87-.86,2.82-1.29,2.28-1,4.4-2.66,6.72-3.54,1.22-.46,1.19-2.62-.34-2.47l-.21,0a1.21,1.21,0,0,0-.66.25c-2.07.88-3.95,2.26-6,3.22a61.92,61.92,0,0,0-6.33,3.12c-.14-.9-.3-1.81-.47-2.7,6.81-7.28,14.91-13.26,23.33-18.65A61.26,61.26,0,0,1,465,29.22C465.05,32.66,464.85,36.19,464.58,39.62Zm9.6-9.32a76.63,76.63,0,0,1-1.84,15c-.5,2.35-.95,4.7-1.41,7.06-.11.55-.13,1.37-.3,2.06-1.67-1.1-3.52-1.9-5.3-2.84,2.39-6.32,2-14.25,2.2-20.81a61.63,61.63,0,0,0-3.78-23.24s0,0,0,0c2.47-1.54,5-3,7.45-4.51,1.8,3.53,2,8.39,2.49,12.14A113.05,113.05,0,0,1,474.18,30.3Z"/><path class="bd95779d-a2b1-414f-b7cd-418d1408dcd8" d="M521,117.77a2.25,2.25,0,0,0,0-.26c2-1.71,2-5.76-1.31-6.7a15,15,0,0,0-4.43-.78,3.46,3.46,0,0,0-5,.14,7,7,0,0,0-1.75,3.17,3.26,3.26,0,0,0,.38,2.83c-.06.25-.12.5-.17.75-.73,4.14,1.06,11.88,6.52,11.65S520.83,121.63,521,117.77Z"/><path class="bd95779d-a2b1-414f-b7cd-418d1408dcd8" d="M594.54,126.05a3.27,3.27,0,0,0-3.92.14,3.41,3.41,0,0,0-2.6,2.62,55.33,55.33,0,0,1-2,5.78c-.65,1.73-1.69,3.9-1.73,5.75-.09,4.18,4.47,5.86,7.7,3.87C597.11,141.06,600.69,129.88,594.54,126.05Z"/><path class="b7add680-accf-4dfa-869b-7ecf1c0368aa" d="M651.45,137.42a9.75,9.75,0,0,0-4.2-2.37,13,13,0,0,0-2.39-.49,6.66,6.66,0,0,0,.39-1,23.24,23.24,0,0,0,.61-4.84c.09-3-.15-7.48-1.37-10.28-1.33-3.06-4.23-3.29-7.18-3a88.73,88.73,0,0,0-13.1,2.68c-4.21,1.12-8.64,2.92-12.92,3.76a28.92,28.92,0,0,0-9.51,3.33,19.19,19.19,0,0,0-1.89,1.3c-2.63-.39-4,2.72-2.79,4.57,0,.18-.08.35-.11.55-.53,3.15-.43,8.52-2.76,11.06a2.92,2.92,0,0,0-.44.64,2.94,2.94,0,0,0-3,2.19v0a3,3,0,0,0,.43,2.36,21.25,21.25,0,0,0,1.62,4.69,24.28,24.28,0,0,0,1.92,3.61,2.3,2.3,0,0,0,0,1.71c2.33,5.77,6.88,10.37,10.7,15.16a30.85,30.85,0,0,0,2.34,2.6l.22.3a3.1,3.1,0,0,0,1.05.91c.42.39.85.77,1.28,1.14a3,3,0,0,0,.36.83,31.4,31.4,0,0,0,8.91,8.35c2.77,1.79,6,3.13,9.12,1.6a26.06,26.06,0,0,0,9.31-8.61,18.62,18.62,0,0,0,2.39-5c.54-1.91-.07-3.67.83-5.37s2.35-3.29,3.39-4.89a44.94,44.94,0,0,0,3.47-6.85,87.71,87.71,0,0,0,4.29-11.49C653.23,143.82,653.52,139.78,651.45,137.42Z"/><path class="b7add680-accf-4dfa-869b-7ecf1c0368aa" d="M510.58,125.39a13.1,13.1,0,0,0-1.46-3.63,8.27,8.27,0,0,1-.64-5.18c.76-5.49,1.07-9.31-2.3-14a107.21,107.21,0,0,0-12.8-15.08c-4.1-3.88-8.05-9.35-12.94-12.26a2.47,2.47,0,0,0-1.36-1.78c-3.32-1.58-9.3,2.87-10.62,7a27,27,0,0,0-5.79,7.93c-.95,2.22-1.49,4.47-.48,6.75.6,1.37,1.57,2.55,2.19,3.93s.87,2.58,1.41,3.85c-1-.19-2.11-1.35-2.69-.73-3.78-.69-7.37-.33-11.16-.56-4.18-.25-8.4-.74-10.67,3.59-2,3.79.7,11.44,3.33,14.46,2.22,2.54,3.95,2,7.43,2,.94,2.58.71,4.31,1.78,6.88,1.15,2.73,1.63,7,3.2,9.53,3.47,5.53,8.26,5.93,14.3,4.77a86,86,0,0,0,17.58-5.66c3.25-1.38,6.41-2.9,9.72-4.15,3-1.12,6.48-1.82,9.25-3.33C509.7,128.74,510.84,127.56,510.58,125.39Z"/><path class="ba5ade3f-4cc5-4328-9905-43bdd829141e" d="M587.09,131c.43-4.12,2-8.93.42-13a27.1,27.1,0,0,0-8-11c-1-.83-1.94-1.62-2.95-2.36-2.1-2.73-6.69-5.6-10.23-6-3-1.85-5.88-2.6-9.6-3.37-4.6-.94-8.68-1.81-13.49-1.25-4.48.52-8.18,1.54-11.51,4.64A50.94,50.94,0,0,0,524,108.85c-4.52,7.16-4.85,18.62-3.49,26.73a20.53,20.53,0,0,0,2.85,7.2,2.42,2.42,0,0,0,.26,2.4,39.15,39.15,0,0,0,8.58,9.35c.46.33.93.66,1.41,1,.59.57,1.18,1.14,1.76,1.72a2.56,2.56,0,0,0,1.47.76,3.91,3.91,0,0,0,.44.37c7.74,5.63,19,4.34,27.59,2,3.83-1,7.56-2,10.66-4.68,3.45-2.92,5.75-7.7,7.42-11.79S586.64,135.34,587.09,131Z"/><path d="M642.13,170.58c4.42-4.81,7.22-11.05,10-16.92,2-4.33,5.47-10.93,2.19-15.57a7.78,7.78,0,0,0-4.49-2.81c-1.17-.35-2.4-.65-3.64-.93a25.78,25.78,0,0,0,.38-15.66c-1.64-5.11-6.06-4.76-10.63-4.12-7,1-13.79,3.15-20.6,5.11-6.39,1.85-12.64,3.64-18.67,6.45-1.86-1.81-4.36-1.08-7-1.44,0-4.42-.78-8.86-2.55-12.27-3.56-6.88-11.09-11.57-17.87-14.84-13.26-6.39-32.07-9.09-42.49,3.47a33.86,33.86,0,0,0-5.33,9.11c-3.34-1.34-6.53-3.82-10.32-2.28-5.28-6.56-10.32-13.3-15.61-19.87-3-3.67-6.12-7.15-9.29-10.65-2-2.24-5.18-5.19-8.12-6.17-2.52-.85-4.56.76-6.32,2.45A74.64,74.64,0,0,0,463.9,83a18.68,18.68,0,0,0-3.77,9.36c-.37,3.69,1.36,5.88,3.3,8.59-2.2-.33-4.41-.65-6.6-1-4.83-.76-17,.1-18,6.54-.43,2.92.79,7.44,1.84,10.11,1.34,3.41,3.86,5.89,7.56,6.42a16.53,16.53,0,0,0,2.83.13,53.1,53.1,0,0,0,1.51,6.46,41.68,41.68,0,0,0,3.24,9.93c3.28,6.18,8.94,5,14.93,4.13a100.39,100.39,0,0,0,21-5.81c6.46-2.44,13.59-4.7,18.87-9.34a1.4,1.4,0,0,0,.31-.4,10.5,10.5,0,0,0,5.6,1.35,1.22,1.22,0,0,0,.56-.12c.22,0,.43.06.65.08a34.79,34.79,0,0,0,3.57,14.35c3.08,6.54,8.59,12,14.72,15.82a31.13,31.13,0,0,0,21.48,4.14c8-1.18,16.87-3.71,21.91-10.48,2.09-2.81,3.52-6.22,5-9.45a8.68,8.68,0,0,0,4.55,1.46.78.78,0,0,0,.05.14c1.64,5.43,2.26,10.25,5.35,15.22a134.58,134.58,0,0,0,8.41,12.1,89.5,89.5,0,0,0,13.32,13.92c3.75,3.12,6.75,5.15,11.46,3.1,6.88-3,16.35-10.26,14.18-18.95A1,1,0,0,0,642.13,170.58ZM508.89,126.73c-4.52,4-10.75,6.09-16.28,8.14a131.18,131.18,0,0,1-15.48,5c-5.67,1.34-15.56,4.65-19.13-1.65a32.75,32.75,0,0,1-2.63-7.88c-.54-2.12-1.65-5-1.86-7.45,3.39-.45,6.87-1.43,10-1.76,4.74-.5,9.35-.53,14-1.5,1.59-.32.89-2.74-.69-2.42-7,1.46-14.34,1.45-21.46,2.58-.8.13-1.59.24-2.38.33a1.19,1.19,0,0,0-1.79.13c-3.91.13-7.29-1-8.64-6-.8-2.91-2.24-7.63.6-9.56,6.62-4.49,15.2-2,22.38-.89a127.67,127.67,0,0,1,20.33,4.24c1.55.49,2.17-2,.63-2.44a133.1,133.1,0,0,0-20.38-4.33,1.07,1.07,0,0,0-.12-1.1c-2.55-3.63-4-6-2.71-10.6,1-3.72,3.54-6.38,6-9.3,2-2.37,5-7.66,8.62-6.46,2.67.89,5.25,3.88,7.05,5.87,8.57,9.44,16.14,19.67,24.1,29.58a10.15,10.15,0,0,0-2.15,5.36,18.62,18.62,0,0,0,1.3,10.12,8.76,8.76,0,0,0,1.05,1.7A1.46,1.46,0,0,0,508.89,126.73Zm.77-5.49a18.3,18.3,0,0,1-.27-6.26c.46-3.15,2.15-5.53,5.72-4.88,2,.36,3.63,1.58,5.44,2.39a56.69,56.69,0,0,0-2.34,10.2,42.09,42.09,0,0,0-.38,4.22l-.62-.14a1.3,1.3,0,0,0-1,.15C512.55,126.78,510.46,124.91,509.66,121.24Zm70.81,25c-1.44,3.05-3,6.06-5.54,8.29a27.16,27.16,0,0,1-10.4,5.12c-6.8,1.76-13.39,3.06-20.19.74a37.7,37.7,0,0,1-16.55-11.25c-9.43-10.88-9.12-26-3.76-38.68,3.1-7.35,8.06-13,16-14.89,7.33-1.69,15.3-.6,22.38,1.81,6.66,2.26,15,6.64,19.61,12,4.41,5.11,5.56,13,4.88,20C585.8,135.53,583.1,140.66,580.47,146.26Zm6.61-4.16a9.65,9.65,0,0,1-1.27-.37,1.69,1.69,0,0,0-.17-.3,46.2,46.2,0,0,0,2.19-5.34,1.12,1.12,0,0,0,.67-.81,44.06,44.06,0,0,0,.94-5.72c0-.22.07-.43.1-.66a1.13,1.13,0,0,0,0-.45c0-.44.06-.89.08-1.33,1.34,0,2.75-.4,4,.11,2.84,1.16,3,5.38,2.66,7.88s-1.58,5.49-4,6.86A5.49,5.49,0,0,1,587.08,142.1Zm54,25.88-1.21-.85c-2-2.09-5-3.14-7.53-4.76s-4.75-3.67-7.09-5.42c-1.26-.94-2.54-1.81-3.86-2.65s-3.82-1.68-4.73-3-3.1,0-2.16,1.29c1.82,2.56,5.68,3.76,8.24,5.57,3.89,2.75,7.23,5.89,11.53,8l.23.13a1.38,1.38,0,0,0,.6.78l2.22,1.29c2.84,3,2.75,7.23-.14,11.14-2.23,3-7.5,7.7-11.47,8.31-5.24.82-10.78-5.35-14.31-8.7a77.1,77.1,0,0,1-8.8-10.88c-2.48-3.48-4.89-7-7.05-10.72-2.32-4-2.68-8.29-3.91-12.57a10.28,10.28,0,0,0,6.3-6.1,14.63,14.63,0,0,0,.09-10.64,96.89,96.89,0,0,1,14.39-5.12c4.76-1.34,9.46-3.06,14.29-4.14s14.11-4.65,17.43.41c1.2,1.84,1,6,.85,8a28.85,28.85,0,0,1-1.16,6.09,1,1,0,0,0-.3.34c-1.24-.23-2.47-.44-3.66-.61-7.37-1-14.85-.95-22.19-1.88-1.59-.2-2.23,2.23-.62,2.44,10.46,1.32,21,.95,31.33,3.7,8.65,2.32,2.67,12.76.17,17.94C646.45,159.71,644.18,164.29,641.05,168Z"/><path class="bd40eeb2-f20f-4477-af24-9eaba1a2a662" d="M409.66,126.15a11.46,11.46,0,0,0-4.05-2.47,30.48,30.48,0,0,0,.63-5.46,37.59,37.59,0,0,0-1-9c-1.15-4.37-4-7.31-8.8-6.42a13.39,13.39,0,0,0-4.08,1.57c-2.73.86-5.12,2.82-7.38,4.65-2.6,1.42-5.07,3-6.49,5.61a27.69,27.69,0,0,0-7.45,7.86h.06a3.93,3.93,0,0,0-.54,1.62l0,.27a3,3,0,0,0,.95,2.65s0,.06,0,.1c0,1.88.4,3.92.54,5.92-1.55,2.05-1.5,4.33-1.09,6.71a5.06,5.06,0,0,0,1,4.16,3.76,3.76,0,0,0,.61.74c.34.79.71,1.56,1.08,2.35a22.5,22.5,0,0,0,7.47,9c5.21,3.89,15.58,11.07,19.57,2.27a15,15,0,0,1,.74-2,6,6,0,0,0,.34-.56c.09.11.35.2.93.16,1.7-.11,3.16-.14,4.54-1.37,2.52-2.24,3.42-7.19,4.2-10.25a21.93,21.93,0,0,0,.66-8.25A8.93,8.93,0,0,0,409.66,126.15Z"/><path class="bd40eeb2-f20f-4477-af24-9eaba1a2a662" d="M354.66,109.31c-3.72-2.82-8.59-4.69-12.84-6.5a19,19,0,0,0-6.85-2c-5.61-3.58-11.2-4.25-17.67-3.62-.1,0-.19,0-.29.06-3.08-.43-6.18-.77-9.27-1.15-4.46-.54-9-1.63-13.5-1.9a63.42,63.42,0,0,0-11.85.69c-8.78,1.13-17.43,1.92-25.05,7.07a54.58,54.58,0,0,0-9.52,8.5c-2.37,2.6-6.54,6-7.15,9.64a4.34,4.34,0,0,0,0,1.19,3.75,3.75,0,0,0-.27,5.42,10.72,10.72,0,0,1,2.9,7.48,3.83,3.83,0,0,0-2.85,5.65c1.86,3.64,5.2,6.76,8.61,9.37,1.93,2.48,5.33,4,8,5.3,4.74,2.29,10.68,4.46,16.09,4.32a35.33,35.33,0,0,0,3.69.87c2.23.38,4.45.89,6.69,1.14A13.42,13.42,0,0,0,285,161a45.14,45.14,0,0,0,13.68,1.48,52.27,52.27,0,0,0,9.31-1.24,3.15,3.15,0,0,0,2.46.65,187.25,187.25,0,0,0,28.45-6.22,30.29,30.29,0,0,0,8.28-3.76c2.71,0,5.17-1.57,7.24-3.4a16.47,16.47,0,0,0,2.33-1.92,15.75,15.75,0,0,0,2-2.64,11.12,11.12,0,0,0,4.37-4.76,3.76,3.76,0,0,0,.73-2.07C364.39,127.57,363,115.63,354.66,109.31Z"/><path class="bd40eeb2-f20f-4477-af24-9eaba1a2a662" d="M232.93,131.22c1-5.22-2.84-8.94-6.86-12.26a3.9,3.9,0,0,0-.74-.48c-1.08-1.39-2.21-2.74-3.33-4.06-3-3.57-6.78-9.24-12.18-7.76a3.75,3.75,0,0,0-1.34.67c-.46-.28-.91-.57-1.36-.86-2.21-1.41-4.22-2.85-6.54-4.1-2-1.07-3.26-2.46-5-3.74a3.8,3.8,0,0,0-5.55,2.25c-.61,3.31-.39,6.68-.92,10a3.92,3.92,0,0,0,.27,2.21,3.77,3.77,0,0,0-1.52,1.24,11.29,11.29,0,0,0-2.19.9c-4.89,2.65-2.51,8.27-1.51,12.43,1.42,6,2.65,12.34,4.61,18.13,1.26,3.71,4.43,9.27,9,9.25a11.11,11.11,0,0,0,4.86-1.56,17.29,17.29,0,0,0,1.45,1.51,3,3,0,0,0,0,.74c.63,5.73,6,9.06,11.56,7.85l.32-.09a6.28,6.28,0,0,0,5.29-1,11.11,11.11,0,0,0,2.89-3.86c1.23-2.19,2.74-4.21,4-6.39a34.51,34.51,0,0,0,2.61-5.83,4,4,0,0,0,1.37-1.86A21.81,21.81,0,0,0,232.93,131.22Z"/><path class="ba5ade3f-4cc5-4328-9905-43bdd829141e" d="M370.08,129.78a9.63,9.63,0,0,0-1.72-3.67c-1.1-3-5.75-1.81-5.63,1.26a2.81,2.81,0,0,0,.22,1.33c.49,2.91-.2,6.15,2.46,8.15a2.92,2.92,0,0,0,3,0C371.12,135.35,370.82,132.36,370.08,129.78Z"/><path class="ba5ade3f-4cc5-4328-9905-43bdd829141e" d="M241.26,129.49a10.13,10.13,0,0,0-.7-1.58c-.13-.22-.63-1.28-.52-.73a2.86,2.86,0,0,0-2.45-2.11c-2.69-1.55-6.08,2.18-3.54,4.61.07.06.12.15.18.46.11.5.21,1,.29,1.52a28.07,28.07,0,0,0,.64,3.16,3,3,0,0,0,3.61,2.05,4.77,4.77,0,0,0,3-4.93A7.15,7.15,0,0,0,241.26,129.49Z"/><path d="M410.57,125a9.44,9.44,0,0,0-3.1-1.67c0-.77,0-1.57-.05-2.26a36.7,36.7,0,0,0-.69-8.31c-1.34-5.39-2.68-11.7-9.2-11.41-6.11.27-12.43,4.59-17.11,8.16a32.52,32.52,0,0,0-6.57,6.21c-1.62,2.17-4.25,4.88-5.32,7.62a13.73,13.73,0,0,0-4.83-.32,19.09,19.09,0,0,0-1-3.11c-1.88-4.37-4.61-6.82-7.94-10.05s-7.38-4.75-11.27-7a62.85,62.85,0,0,0-15.55-6.64c-10.4-2.55-21.5-1.91-32.09-2.71-6.15-.47-12.31.36-18.47.43a40.58,40.58,0,0,0-15.69,3.49c-5.92,2.52-10.08,6.3-14.34,11a40.11,40.11,0,0,0-5.28,7.44c-.4.7-3.7,8-3.25,7.88a1.18,1.18,0,0,0-.36.14,12.6,12.6,0,0,0-4.31-.19,1.19,1.19,0,0,0-1.12.81,33.17,33.17,0,0,0-10.75-11.66c-2.69-1.77-5.3-3.74-8.1-5.35s-6-2.59-8.89-4.09c-3.06-1.58-6-3.33-9.13-4.87-1.56-.77-4.28-2.59-6.11-1.68-1.47.73-1.54,2.5-1.72,4a89.49,89.49,0,0,0-.84,10.71s0,0,0,.07v.22a1.21,1.21,0,0,0,.1.48,9.29,9.29,0,0,0-1.84.42c-4.47,1.63-4.2,5.81-3.83,9.7a117.78,117.78,0,0,0,3.36,20,37.13,37.13,0,0,0,3,8.07c.83,1.53,1.88,3.86,3.54,4.76,2.73,1.48,6.21.34,9.09-1.22a33.47,33.47,0,0,0,10,10.8c4,2.71,8.54-.92,11.65-3.66,6.66-5.87,12.13-14.47,13-23.33a4.32,4.32,0,0,0,2.51.26,44.69,44.69,0,0,0,9.42,13.64c3.78,3.7,9.7,5.72,14.65,7.19a108.86,108.86,0,0,0,19.56,4.19c3.8.4,7.63.16,11.45.45a90.87,90.87,0,0,0,11.9,0A138.9,138.9,0,0,0,344,156c5.34-1.9,10.33-4.4,14.29-8.47a30.61,30.61,0,0,0,6.27-9,9.48,9.48,0,0,0,3.85-.63c.86,4.1,3.33,8.46,5.58,11.73a32,32,0,0,0,10.5,9.56c2.86,1.56,7,4,10.46,3.38,3-.52,5.61-3.46,6.79-6.22l.05,0c5.74,1.83,9.92-7,11.38-11.43C415.1,139,416.14,129.55,410.57,125ZM232.39,141.45a49.45,49.45,0,0,1-8.06,14.2,27.07,27.07,0,0,1-5.34,5c-3.27,2.24-4.67,3.13-8.25.63a27,27,0,0,1-7.68-8.58c.36-.24.7-.47,1-.7,4.18-3,8.44-5.75,12.15-9.32,1.56-1.5,5.32-4.1,4-6.68-.74-1.44-2.91-.17-2.17,1.27.2.4-4.51,4.59-5.1,5.15-2.65,2.53-6.18,4.41-9.16,6.59-4.56,3.34-9.86,6.67-13.33.18-2.35-4.41-3.29-9.48-4.25-14.34a135.81,135.81,0,0,1-1.89-14c-.29-3.13.47-5.63,4.09-6a60.71,60.71,0,0,1,7.63,0c4,.11,8.18,1.33,12.12,2.24,3.52.81,6.57,2.77,9.92,3.69a1.27,1.27,0,0,0,1.54-.88l.06-.3a1.34,1.34,0,0,0-1.74-1.51c-1.79-.67-3.58-1.82-5.4-2.4-3.28-1-6.66-1.56-10-2.37a32.48,32.48,0,0,0-8.15-1c-1.39,0-2.93-.15-4.44-.17a1.36,1.36,0,0,0,.05-.36,64.69,64.69,0,0,1,.57-7.74c.06-.46.06-4.19.46-4.45.87-.55,3.44.88,3.86,1.09,4.21,2.06,8.2,4.52,12.51,6.38,8.33,3.6,16.59,9,21.94,16.4C233.08,128.7,234.78,135.34,232.39,141.45Zm7.12-6.6c-.55.34-2.56,1.08-3.13.59a1.31,1.31,0,0,0-.64-.29,22.72,22.72,0,0,0-1.66-8.39l-.24-.55a1.48,1.48,0,0,0,.31,0c1.67-.07,3.15-.54,4.43.81a9.78,9.78,0,0,1,2.06,3.28C241.18,131.93,241.07,133.88,239.51,134.85ZM353.64,148.1c-4.49,3.72-10.09,5.22-15.56,7.06a115.32,115.32,0,0,1-34.6,6c-6.44.12-12.92-.07-19.34-.33-6.19-.25-11.93-2.06-17.9-3.48-5.21-1.23-10.77-3-15.22-6-2.39-1.65-4.39-4.42-6.05-6.81a38.83,38.83,0,0,1-4.53-7.33,7.49,7.49,0,0,0,1.83-1.72c3.72,4.59,9.6,7.83,15,9.8a45.52,45.52,0,0,0,11.45,2.34c5,.36,9.87-.56,14.85-.63a1.26,1.26,0,0,0,0-2.52c-3.77.05-7.45.66-11.24.67a55.12,55.12,0,0,1-12-1.57c-3.09-.7-5.59-2.39-8.4-3.73a22.42,22.42,0,0,1-8.37-6.77,1.37,1.37,0,0,0-.19-.22,4.21,4.21,0,0,0,0-.5c0-2.75-1.32-4.61-2.84-6.76l0,0a1.17,1.17,0,0,0,.09-.24c1.28-6.84,6.67-13.1,11.17-18.08,4.89-5.41,12.34-8.74,19.4-10.12,6.51-1.27,13.73-1,20.36-1.22,6.13-.22,12.43.66,18.56,1,6.29.38,13.22.54,19.25,2.49a87.82,87.82,0,0,1,17.79,8.3c4.2,2.54,9.14,6,11.76,10.28s2.78,9.59,3.67,14.52a1.14,1.14,0,0,0-.09.26c-2.12,2-5.82,3.07-8.4,4.07-3,1.17-6.19,2.62-9.26,3.51-3.48,1-7.11,2-10.64,2.85s-8.3,2-11.92,1a1.26,1.26,0,0,0-.67,2.43c7.39,1.95,16.89-1.82,23.9-3.84,3.81-1.1,7.4-3,11.18-4.21a24.39,24.39,0,0,0,6.14-2.82C361.76,140.62,357.07,145.25,353.64,148.1Zm15.18-13.18a6,6,0,0,1-3.49,1.15,10,10,0,0,0,.24-3.35,1.54,1.54,0,0,0-.54-1c-.34-2-.54-4.11-.85-6.15a9.44,9.44,0,0,1,3.28.13c1.74.54,2.3,2.58,2.6,4.19S370.36,133.81,368.82,134.92Zm42.25,8.19a21.1,21.1,0,0,1-4.13,8.11,10.11,10.11,0,0,1-2,2.2c-2,1.39-3.59.23-5.58-.73a36,36,0,0,1-6.94-4.06c-.86-.7-4.73-3.7-5.17-4.95-.53-1.52-3-.87-2.43.66a4.18,4.18,0,0,0,1.34,2c1.47,1.41,3,2.93,4.58,4.23a35.21,35.21,0,0,0,8.57,5c-.93,2.14-3.28,4.71-5.6,4.64a17.21,17.21,0,0,1-3.49-1.06,26.45,26.45,0,0,1-8.53-4.87,29.47,29.47,0,0,1-6.22-6.73c-1.87-3.07-4.44-7.5-4.85-11a7.31,7.31,0,0,0,2-6.42,10.35,10.35,0,0,0-1.93-5.17c.58-2,2.58-4.06,3.75-5.66a32.6,32.6,0,0,1,5.26-6,51.29,51.29,0,0,1,13-8.18c2.32-1,5.35-2,7.58-.53s3,5,3.68,7.57a30.52,30.52,0,0,1,.89,7.67c0,.49.25,2,.23,3-4.78-.55-10.26,1.28-14.34,2.6-1.53.5-.88,2.94.67,2.43,3.81-1.24,9-3.18,13.36-2.51a1.23,1.23,0,0,0,1.62.39,7.59,7.59,0,0,1,1.11.45C413.4,129.15,412.38,137.69,411.07,143.11Z"/><path class="b5dd677d-9821-4f5e-87d3-bb6d043789f5" d="M118.83,127.25a11.29,11.29,0,0,1-5.07-1.11,3.92,3.92,0,0,0-1.47-2.06l-.34-.28a3.88,3.88,0,0,0-.75-1.47c-1.9-2.28-4.36-3.89-6.51-5.91a3.61,3.61,0,0,0-3.09-1,46.46,46.46,0,0,0-5.52-4,4.61,4.61,0,0,0-.52-.23c-3.62-4.53-6.93-9.3-10.14-14.12S79.1,87.46,76,82.61l-.11-.18a8.82,8.82,0,0,0-2.33-3.76,27.3,27.3,0,0,1-2-4.15,15.6,15.6,0,0,0-2.32-4.93c-1.46-1.83-5-1.26-5.94.78-1.22,2.6-1.25,5.21-1.85,8S60.23,84.1,59.79,87a58,58,0,0,0-.41,16.47,3.88,3.88,0,0,0,0,5.11A23.32,23.32,0,0,0,61.73,111c7.61,7.8,15.63,16.58,25.43,21.2,5.08,2.39,10.1,2.82,15.64,2.58,5.26-.23,10.6.55,15.83,0h.12v0c.32,0,.65,0,1-.1C124,134.1,123.08,127.05,118.83,127.25Z"/><path class="b5dd677d-9821-4f5e-87d3-bb6d043789f5" d="M159.2,59.65c-.16-.35-.32-.7-.49-1a28,28,0,0,0-4-7.07l-.1-.16A41.51,41.51,0,0,0,145.73,41c-3.08-2.37-9.51-3.82-13.31-4.46-9.23-1.57-14.59-2.84-22.57.59-2.41,1-2.23,4.3-.79,6s3.23,2.49,4.79,3.86c1.84,1.61,3.38,3.54,5.06,5.3,3.37,3.55,7.23,6.58,10.78,9.95a3.43,3.43,0,0,0,1.82.91c.73,1,1.48,2,2.26,2.94.6.73,1.19,1.5,1.8,2.27l1.57,2.15c.94,1.93,2.06,3.78,3.14,5.64a66.67,66.67,0,0,0,5.33,8.47,2.61,2.61,0,0,0,.44.44c1.34,3.48,2.64,7,4.19,10.17a4.22,4.22,0,0,0-.17.68,3.81,3.81,0,0,0,6.31,3.67c3-2.77,3.47-7,4.66-10.68,1.32-4.11,2.6-8,2.43-12.41a41,41,0,0,0-3-13.83,3.35,3.35,0,0,0-.7-2.12C159.57,60.19,159.39,59.92,159.2,59.65Z"/><path class="bd40eeb2-f20f-4477-af24-9eaba1a2a662" d="M131.44,77.24a95.11,95.11,0,0,0-8.69-11.41c-3.34-4-6.6-8.7-10.6-12-3.69-3.06-12.94-8.16-18.29-5.81a3.12,3.12,0,0,0-2.38.64c-7.07,5.07-11.22,12.51-10.62,21.29.58,8.35,4.38,17.42,9.4,24.06,5.62,7.42,13.1,13.69,20.76,18.91,6,4.11,13.26,7.69,20.82,6.27C139,117.84,143,109,142.79,102.31,142.45,92.87,136.18,84.93,131.44,77.24Z"/><path class="ba5ade3f-4cc5-4328-9905-43bdd829141e" d="M144.74,84.11q-3.42-4.52-6.88-9a44.19,44.19,0,0,0-2.43-6.19c-3.58-7.05-8.7-12.19-14.29-17.66a73.88,73.88,0,0,0-7.6-7c-2-1.49-3.92-3.49-6.4-3.93a4.7,4.7,0,0,0-1.06-1c-2.73-1.75-5.72.19-8.47.71a45.22,45.22,0,0,0-6.87,1.78l-1.25.22a2.52,2.52,0,0,0-1.6,1h0c-3.7,1.76-6.61,4.81-10.1,6.93a2.73,2.73,0,0,0-1.39,2.61,22,22,0,0,0-6.73,8.1.32.32,0,0,0,0,.09,2.81,2.81,0,0,0-.83,1.86c-.13,4.82,2,8.43,3.73,12.8a128.89,128.89,0,0,0,7.55,15.44,2.77,2.77,0,0,0,1.27,1.21,111.64,111.64,0,0,0,8.34,9.65c4,4.36,7.56,9.13,11.82,13.23A60.46,60.46,0,0,0,115.64,125a2.92,2.92,0,0,0,1.83,1.67l.93.33c1.87.79,3.43,2.26,5.43,2.7a3.32,3.32,0,0,0,2.29-.28c.34.07.69.14,1,.19a3.11,3.11,0,0,0,3.65-3.28,3.11,3.11,0,0,0,.94-.41,4.15,4.15,0,0,0,1.66-.76c3.1-2.41,6.1-5.11,9.07-7.68a23.05,23.05,0,0,0,3.23-3.56,2.89,2.89,0,0,0,1.58-1.28,10.16,10.16,0,0,0,.93-2.14c.45-.61.9-1.22,1.39-1.81,1.81-2.2,3.59-4,2.78-7.09a19.77,19.77,0,0,0-.73-2.12,3.5,3.5,0,0,0,.16-1.62C151.13,93,147.69,88,144.74,84.11Zm-7.05,5.66c1.48,2.83,2.08,6.1,2.72,9.22.23,1.14.57,2.49.85,3.87-.23,2.22-.5,4.81.12,6.9a58.48,58.48,0,0,1-10.64,10.13,3.07,3.07,0,0,0-1.27.77l-.11,0c-3.16.72-5.49-1.7-8.33-2.3a3,3,0,0,0-3.11,1.22,54.51,54.51,0,0,1-13.33-9.82c-3.43-3.47-6.38-7.38-9.66-11s-7.16-7.32-9.8-11.51a3,3,0,0,0-.85-.89c-1.21-2.2-2.4-4.43-3.52-6.69a2.79,2.79,0,0,0,.16-3c-1.58-3.06-.7-8.52.24-11.67.58-1.91,2.07-3.67,2-5.74a3.11,3.11,0,0,0-1.07-2.17c2.93-1.59,5.73-4.74,7.86-7.23l.47-.25A21.67,21.67,0,0,1,97.31,48c2.7.63,5.29,1.67,8.24,2a2.6,2.6,0,0,0,2.39-1.26,244.5,244.5,0,0,1,19.13,22c2,2.52,4,5.06,5.94,7.61A94.58,94.58,0,0,0,137.69,89.77Z"/><path class="bd40eeb2-f20f-4477-af24-9eaba1a2a662" d="M114.08,56.05c-4.63-6.38-14.34-11.41-22.27-8.45A14.54,14.54,0,0,0,83,56.36c-.17.42-.37.89-.57,1.39a5.86,5.86,0,0,0-1.2,3.33c-.79,2.62-1.17,5.44.13,7.35a2.72,2.72,0,0,0,.77.74c.11,1.14.22,2.28.29,3.44a31,31,0,0,0,3.87,14c1.92,3.25,7,.36,5.1-2.9-2.26-3.83-2.94-8.15-3.17-12.54-.19-3.59-1.14-7.27-.55-10.82.24-.6.44-1.08.54-1.32,1.24-3.14,3-5.33,6.44-6.1,5-1.12,11.42,2,14.35,6C111.17,62,116.3,59.11,114.08,56.05Z"/><path class="ba5ade3f-4cc5-4328-9905-43bdd829141e" d="M200.42,20.3a4.77,4.77,0,0,0-1.66-.24c-4.14.13-9.11,4.22-12.32,6.52a36.45,36.45,0,0,0-8,7.43l-.09-.16a2.67,2.67,0,0,0-1.64-1.36c1.25-4.22,2.21-8.53,3.06-12.84,0-.15.06-.32.08-.49a24.3,24.3,0,0,0,1-5.39,2.74,2.74,0,0,0,1-1.48,2.8,2.8,0,0,0-.29-2.23,8.74,8.74,0,0,0-1.17-1.42,4.3,4.3,0,0,0-2.77-1.2,3.36,3.36,0,0,0-2.46.94,8.69,8.69,0,0,0-1.19.36c-3.14,1.24-4.46,5.93-5.54,8.8a131,131,0,0,0-4.26,13.39c-.82,3.17-3.09,7.93-2.44,11.22.38,2,2.91,4.86,4.72,5.73a2.44,2.44,0,0,0,.34.14l.45.46a3.37,3.37,0,0,0,.43.34A25.1,25.1,0,0,0,169,51a2.88,2.88,0,0,0,0,.59c.12,1.62.43,3.22.42,4.84,0,1.4-.41,2.78,0,4.12.63,2.19,3.16,4.4,4.95,5.63,4.45,3.06,11.66,6.37,17.22,5,5-1.21,4.6-6,.65-8.24A47,47,0,0,0,185.27,60a2.21,2.21,0,0,0,1.27-.85,3.19,3.19,0,0,0,.93.24c4.06.35,11.46-1.94,15-5.89A2.93,2.93,0,0,0,203.9,53a5,5,0,0,0,2.18-2.83c1.89-2,3-4.8,1.67-7s-3.69-2-5.47-.74a19.47,19.47,0,0,0-10.36,0c-1.14,0-2.27.11-3.32.21A52.32,52.32,0,0,0,197.4,35l.21-.11c2.56-1.7,6-5.35,6.4-8.54a5.87,5.87,0,0,0-.22-2.47A3,3,0,0,0,200.42,20.3Z"/><path class="ba5ade3f-4cc5-4328-9905-43bdd829141e" d="M55.7,128.29a18.93,18.93,0,0,1-4.43-5.52,13,13,0,0,1-1.63-8.18c.15-2.35-2-3.25-3.79-2.68a2.92,2.92,0,0,0-1.54-1.2c-.17-.06-.33-.14-.5-.21-.46-.23-.89-.54-1.35-.76-.75-.36-1.53-.6-2.25-1a3.26,3.26,0,0,0-1.11-.33l-.68-.24c-1-.6-2-1.16-3.08-1.68l-.2-.11a50.13,50.13,0,0,0-9.32-4.58c-3.61-1.39-7.21-3.11-11-3.73l-.08,0v0c-.25,0-.49-.09-.74-.12a2.35,2.35,0,0,0-2.23.84c-2.61-.55-5.12-.53-7.15.67-5.41,3.2-2.69,9.89,1.26,13A27.59,27.59,0,0,0,20.28,118c-5.35,2.67-11.16,8-9,13.15,1.55,3.67,6,2.61,9.09,2.2a17.56,17.56,0,0,0,6.23-2c.58-.31,2.8-2,4.51-3.09-.81,1.77-2,3.78-2.37,4.72-1.06,3-1.43,6.24-2.41,9.33C24.93,146.68,22,153.45,25,157.77c2.86,4.14,7.58,1.37,9.41-2.18,1.44-2.77,2.31-5.88,3.65-8.72.71-1.51,1.47-3,2.19-4.56.45,1.61.83,3.29,1.31,4.82-.78,3.22-.88,8,1,10.6a7.14,7.14,0,0,0,9.21,1.69c3.1-2,4.55-6.73,5.53-10.08a27.23,27.23,0,0,0,.88-4.27,3.17,3.17,0,0,0,.8-1.18,18,18,0,0,0,.19-11.14C60.77,130.64,58.45,127.12,55.7,128.29Z"/><path class="bd95779d-a2b1-414f-b7cd-418d1408dcd8" d="M161.05,44.25a2.74,2.74,0,0,0-2.33.32l-.61-.19-.18-.13a3.07,3.07,0,0,0-5.48,1.6l0,.51a2.89,2.89,0,0,0,1.47,2.58,4.31,4.31,0,0,0,.49.22c.69,1.11,1.44,2.18,2.18,3.26,1.89,3.51,3.14,7.37,4.9,11,1.24,2.55,5.73,1.48,5.49-1.42,0-.25,0-.5-.06-.75a6,6,0,0,0,1.31-2.62,2.72,2.72,0,0,0,.51-1.26C169.39,52.53,166,45.55,161.05,44.25Z"/><path class="bd95779d-a2b1-414f-b7cd-418d1408dcd8" d="M61.32,110.36c-.14-1.93-2.14-3.77-4.32-2.5-3.76,2.2-6.44,5-6.34,9.59.09,4.19,2.12,9.68,6.87,10.38,3.73.56,9-2.81,9.74-6.59C68.17,116.87,64,113.39,61.32,110.36Z"/><path d="M203.29,18.59c-3.44-2.28-8.11-.07-11.26,1.71A43.09,43.09,0,0,0,180.1,30c.6-2.1,1.33-4.2,1.79-6.21a35.79,35.79,0,0,0,1-10.9c-.34-4-3.12-9.62-8-7.46-5.56,2.46-7.74,10.42-9.45,15.58a120.53,120.53,0,0,0-4.06,13.38c-.46,2.2-1.76,5-1.6,7.33-3.39-.95-6.43.79-9.29,2.47a33.07,33.07,0,0,0-18.18-9.29,58,58,0,0,0-16,0c-5.82.8-11.88,1.54-17.57,2.92-5,1.21-9.53,2.17-14.1,4.57-4.74,2.5-8.16,6.45-11.36,10.65a68.12,68.12,0,0,0-5.82,9.08,1.14,1.14,0,0,0-.27.5,83.2,83.2,0,0,0-8.46,25.74,43.18,43.18,0,0,0,.49,17.05c-3.7,1.11-7.47,2.49-9.23,6.24a19.11,19.11,0,0,0-2.4-1.18c-1.94-.92-3.67-2.23-5.59-3.18-4-2-8.08-4.09-12.23-5.78-7.16-2.91-16.46-6.6-24.19-3.62C-1.15,100.49-1.67,108,3.39,112.6c2.79,2.52,6.52,3.6,10.09,4.51,1.41.36,3,.75,4.54,1a18.89,18.89,0,0,0-4.2,3.51c-2.17,2.4-5.52,6.73-4.37,10.23s6.05,3.69,9.22,3.61a22.59,22.59,0,0,0,10.08-2.93c-.36.82-.71,1.67-1.09,2.51-1.44,3.24-3.13,6.35-4.33,9.69-1.6,4.46-3.52,11.32.85,14.88,6.76,5.5,12.2-5.15,15.2-12.38a40.16,40.16,0,0,0,.16,4.59c.3,2.42.38,5,1.88,7,2.49,3.38,7.25,4.69,10.78,2.29,4-2.74,6.52-8.34,7.75-12.89a43.37,43.37,0,0,0,1.32-8.39c.21-3.43-1.43-7.21-.72-10.53a.55.55,0,0,0,0-.18c3.53-.79,6.61-4.1,8-7.23a1.3,1.3,0,0,0-.28-1.49,1.12,1.12,0,0,0,.4.07c2.55,3,6.27,5,9.52,7.17,4.46,2.93,9.43,6.15,14.67,7.42,5,1.21,10.18,1,15.24,1.17,5.87.13,10.81-1.74,16.15-4a62.57,62.57,0,0,0,26.1-21c1.2-1.73,2.59-3.58,3.9-5.49a1.18,1.18,0,0,0,.57-.52,3.78,3.78,0,0,0,.37-.88,26.43,26.43,0,0,0,3-6c1.71-5.35,3.55-10.68,5.23-16.06a28.16,28.16,0,0,0,.22-16,10.26,10.26,0,0,0,4.57-3.91l.09,0c.56,0,1.61,1.57,2.08,2,1.31,1.09,2.79,2,4.14,3.09a35.53,35.53,0,0,0,5.8,4,15.82,15.82,0,0,0,11.42,1.19c2.6-.75,6-3.17,5.18-6.37-.72-2.79-4.49-4.4-7.82-5.59a17.11,17.11,0,0,0,3.36-.8,51.16,51.16,0,0,0,9.3-4.29c3-1.89,7.74-6.24,7.17-10.27s-6.1-5.61-9.41-6a18.11,18.11,0,0,0-4.77.18,34.33,34.33,0,0,0,9-9.39C206,26.66,207.35,21.28,203.29,18.59ZM58.8,139.14a32.28,32.28,0,0,1-3.73,14.48c-1.3,2.32-2.64,4.33-5,5.54-4.35,2.17-7.31-2.18-7.83-6.14a54.25,54.25,0,0,1-.69-6.46c0-1.7.32-3.23-.14-4.89a1.27,1.27,0,0,0-2.43,0c-1.7,4.07-2.82,8-5.27,11.77-2.27,3.48-8.3,8.35-9.51.8-.69-4.31,1.72-9.46,3.48-13.25,1.64-3.54,3.07-8.52,5.82-11.32,1-1-.31-2.8-1.52-2a32.4,32.4,0,0,1-8.66,4.53c-2.63.78-11.62,2.44-11.08-3.41.23-2.42,3.34-5.49,5.07-7a13.83,13.83,0,0,1,7.18-3.39,1.1,1.1,0,0,0,.6-.29,1.26,1.26,0,0,0-.86-2.35c-5,1.19-13.61-1.24-17.82-4-4.65-3.08-5.66-9.08.32-11.51,3.3-1.33,7.85-1,11.24,0a86.79,86.79,0,0,1,17.57,6.93c2.25,1.19,4.66,2,6.88,3.28,1.75,1,5.18,2.26,6.58,3.65l.19.16a15.42,15.42,0,0,0,.89,9.14,10.43,10.43,0,0,0,8,5.92C57.58,132.55,58.91,135.83,58.8,139.14Zm7.61-18.48c-1.16,2.58-4.4,6.07-7.39,6.16-3.51.1-6.53-3-7.25-6.21-.59-2.64-.63-6.28.85-8.61,1.61-2.54,4.52-3.42,7.28-4.18a28.43,28.43,0,0,0,7.9,12.27A1,1,0,0,0,66.41,120.66ZM114,133.42c-5.13,1.14-11.7.48-16.9-.15-6.13-.74-11.17-3.85-16.33-7-3.52-2.17-8.13-4.74-10.7-8.07a1,1,0,0,0-1-.41A26.6,26.6,0,0,1,62.28,107a1.3,1.3,0,0,0-.62-2.14,38.85,38.85,0,0,1-.75-14.09c.65-5.57,2.38-10.74,4.12-16,.75-2.3,1.53-4.54,2.42-6.74,1,4.63,3.86,9.25,5.81,13.06a107.77,107.77,0,0,0,13.58,21.09c5.11,6,10.15,11.43,16.42,16.24,6,4.6,11.2,10.07,18.36,12.66A52,52,0,0,1,114,133.42Zm16.84-7.1a44.14,44.14,0,0,1-6.3,3.49,1.14,1.14,0,0,0-.8-.75c-7-2.09-11.77-7.21-17.42-11.54a112,112,0,0,1-15.71-15A98,98,0,0,1,77.62,84.06C75.85,80.75,74.1,77.38,72.54,74c-1.38-3-3.47-7.06-3-10.53v0c.47-.89,1-1.77,1.51-2.64,5.55-8.81,12.06-17,22.79-19.11,3.92-.77,7.81-1.59,11.72-2.34,1.4,1.7,3.55,2.73,5.25,4.14,2.38,2,4.76,3.89,7,6.06a130,130,0,0,1,14.45,17.35,191.3,191.3,0,0,1,11.41,18,102.53,102.53,0,0,1,5.26,9.58c.61,1.44,3.61,6.16,3.87,8.53q-.37.63-.78,1.26A77.86,77.86,0,0,1,130.79,126.32ZM160.9,64.94a1.29,1.29,0,0,0,.24,1.13l.12.16a27.5,27.5,0,0,1,.76,11.7c-.75,4.44-2.53,9.27-4,13.52a64.39,64.39,0,0,1-3.7,8.82c-1.35-3.21-2.7-6.49-4.31-9.56a194,194,0,0,0-12.83-21.25C132.79,63.23,128.45,56.35,123,51c-2.4-2.35-4.75-4.8-7.37-6.91-1.52-1.22-3-2.5-4.49-3.73-.69-.57-1.66-1.06-2.49-1.62a122.39,122.39,0,0,1,14.74-1.85c9.11-.51,19.31,2.75,26,9.29a1.35,1.35,0,0,0,.72.71l0,0A47.9,47.9,0,0,1,160.9,64.94Zm5.31-3.84c-.18.26-2.57,2.29-3.16,3a53,53,0,0,0-6.47-12.58,45.35,45.35,0,0,0-4.3-5.43,12.33,12.33,0,0,1,4.36-2c3.36-.53,6.57,2.28,8.44,4.76a13.49,13.49,0,0,1,2.46,7A8.29,8.29,0,0,1,166.21,61.1Zm33.58-29.79a34.78,34.78,0,0,1-11.41,9.17,1.28,1.28,0,0,0,.29,2.31c1.21.48,3.42-.28,4.59-.5,3.51-.66,7.23-1,10.56.68s1.75,5.84-.35,8a20.07,20.07,0,0,1-7,4.29,42.8,42.8,0,0,1-6.34,2.67c-2,.49-4,.46-5.92,1.05-1,.29-1.39,1.82-.32,2.31,2.17,1,11.37,3.22,10.32,6.78-1.25,4.22-10.06,2.37-12.58,1.12-3.14-1.56-5.71-4-8.5-6.1-1.27-1-2.32-2.45-3.79-3a14.06,14.06,0,0,0-1.15-11.13,17,17,0,0,0-5.82-6,1.22,1.22,0,0,0,0-.76c-.57-1.87,1-5.15,1.4-7.08a75.37,75.37,0,0,1,2-7.38c1.66-5.19,3.17-13.7,7.34-17.47,1.17-1.06,3.88-2.54,5.61-1.69,1.36.67,1.56,3.92,1.63,5a31.24,31.24,0,0,1-.69,8.29c-.85,4.39-2.92,8.9-3.17,13.34a1.26,1.26,0,0,0,2.34.64,36.42,36.42,0,0,1,10.7-11.06c2.81-1.84,6.34-4.41,9.82-4.53C206.64,20,202,28.49,199.79,31.31Z"/><path d="M128.35,69.81c-5.4-7.41-10.2-14.7-18.14-19.73-6.12-3.88-13.79-6.28-20.74-3a1,1,0,0,0-.65,1.06C78.12,55,76.24,68.56,80.78,80c3,7.64,8.76,14.18,13.92,20.47,2.39,2.92,5.41,5.09,8.14,7.65a70.74,70.74,0,0,0,9,7.56c5.48,3.67,11.92,7.34,18.74,5.53a15.23,15.23,0,0,0,11.32-12c1.44-7.72.32-13.89-2.74-21A94.68,94.68,0,0,0,128.35,69.81Zm4.72,11.88c2.69,6,6.58,11.53,7.05,18.23S139.3,114,133,117.51c-6.53,3.65-13.2.34-18.83-3.32-10.86-7-20.5-17.59-27.57-28.4C79.18,74.44,77.81,57.44,91,49.73a1.15,1.15,0,0,0,.59-.83c6.13-2.3,13.59.64,18.6,4.17,5.8,4.1,9.77,9.24,13.72,15C127,72.59,130.83,76.71,133.07,81.69Z"/></g></svg>